<svg width="92" height="24" viewBox="0 0 92 24" fill="none" xmlns="http://www.w3.org/2000/svg">
<path d="M22.8583 23.9342C21.2545 23.7013 19.8518 23.0244 18.7806 21.9665C17.8871 21.084 17.3078 20.1135 16.8808 18.7837C16.2141 16.7076 16.2138 14.0383 16.8802 12.0045C17.526 10.0336 18.98 8.31791 20.7595 7.42715C23.224 6.19359 26.6926 6.27108 28.975 7.61069C31.0292 8.81629 32.2735 10.9585 32.6196 13.8853C32.7253 14.7789 32.6568 16.6664 32.4903 17.4455C31.8089 20.6345 29.8245 22.8621 26.9172 23.7018C26.604 23.7922 26.1182 23.8981 25.8377 23.937C25.2441 24.0193 23.4327 24.0176 22.8583 23.9342ZM26.3294 23.688C27.503 23.4148 28.4385 22.9978 29.2748 22.375C31.3089 20.8602 32.4236 18.5374 32.5265 15.5989C32.6279 12.702 31.7518 10.2326 30.0575 8.6404C28.6823 7.34794 26.9492 6.72841 24.7089 6.72841C22.3342 6.72841 20.4217 7.46261 18.9503 8.93913C17.3742 10.5208 16.5405 12.7271 16.5405 15.3167C16.5405 18.0031 17.2937 20.1717 18.7544 21.6911C19.5598 22.5288 20.3438 23.0311 21.468 23.4299C21.8655 23.5709 22.158 23.6386 23.2208 23.8356C23.3117 23.8525 23.9219 23.8556 24.5766 23.8426C25.4631 23.8249 25.9108 23.7854 26.3294 23.688ZM23.8198 22.7507C22.7334 22.2593 21.963 20.7655 21.5769 18.4018C21.3321 16.9034 21.309 13.5713 21.532 11.9386C21.8452 9.64576 22.5069 8.29116 23.5371 7.83358C24.2432 7.51993 25.2219 7.70549 25.8511 8.27234C27.2486 9.53127 27.9539 13.1111 27.6496 17.4002C27.4312 20.478 26.7614 22.1473 25.5119 22.7274C25.0589 22.9377 24.2576 22.9488 23.8198 22.7507ZM25.2576 22.6536C25.7262 22.5149 26.304 21.9746 26.6121 21.387C27.2483 20.1742 27.5323 18.3808 27.5393 15.5329C27.5481 11.9639 26.987 9.6928 25.8027 8.50366C25.3054 8.0043 24.9527 7.84921 24.3168 7.85023C22.9056 7.85249 22.0099 9.32153 21.656 12.2143C21.4934 13.5439 21.4925 16.7116 21.6545 17.8742C22.1558 21.472 23.4501 23.1888 25.2576 22.6536ZM51.2646 23.9334C50.6084 23.867 48.6033 23.5343 47.9029 23.3755L47.4183 23.2657L47.4561 20.6854C47.5471 14.473 47.5585 11.0817 47.4996 7.78363C47.4419 4.55281 47.4251 4.21121 47.3002 3.73329C47.1418 3.12774 46.9133 2.70534 46.6385 2.5102C46.5317 2.43439 46.2416 2.32695 45.9939 2.27145C45.1703 2.08698 45.215 2.11656 45.193 1.74193C45.1804 1.52613 45.2038 1.38356 45.2592 1.33982C45.3334 1.28117 52.0882 -0.00360082 52.3034 7.58656e-06C52.3652 0.00104435 52.374 0.862273 52.3423 3.82654C52.3198 5.93039 52.3169 7.65173 52.3359 7.65173C52.3548 7.65173 52.6017 7.54516 52.8844 7.41491C53.7366 7.02229 54.5221 6.85193 55.663 6.81228C56.4225 6.78588 56.7744 6.80241 57.1641 6.88281C59.712 7.40846 61.5976 9.488 62.2565 12.4992C62.4284 13.2847 62.4923 15.2369 62.3782 16.2147C62.2809 17.0482 62.0034 18.1711 61.7146 18.8998C60.6249 21.6496 58.2868 23.4436 55.1851 23.9098C54.4706 24.0172 52.227 24.0307 51.2646 23.9334ZM55.0015 23.7761C57.0107 23.4757 58.4845 22.7877 59.7326 21.5675C61.5367 19.8038 62.4057 17.3147 62.2882 14.2469C62.2277 12.6674 61.969 11.6357 61.3125 10.3557C60.4232 8.62173 58.902 7.40542 57.1749 7.04725C55.8793 6.77858 54.2123 6.98902 52.9449 7.58124C52.6291 7.72883 52.3267 7.84959 52.2731 7.84959C52.1878 7.84959 52.1786 7.36121 52.2003 4.00276L52.2252 0.155935L51.9598 0.208974C51.8139 0.238145 50.3254 0.514703 48.652 0.823546C46.9786 1.13239 45.5442 1.40034 45.4645 1.41899C45.3432 1.44734 45.322 1.49342 45.335 1.69991C45.3494 1.93003 45.3684 1.95085 45.6123 2.00436C46.4507 2.18833 46.6 2.25388 46.9118 2.575C47.2937 2.96838 47.4662 3.47072 47.5794 4.51903C47.6696 5.35438 47.6896 19.7465 47.6035 21.8709L47.5524 23.1305L48.2345 23.2759C50.8171 23.8266 53.3915 24.0169 55.0015 23.7761ZM52.642 22.7729C52.5084 22.7588 52.3654 22.7069 52.3243 22.6574C52.2109 22.5212 52.0881 13.5685 52.1637 10.9493L52.2236 8.87184L52.7527 8.71973C53.5334 8.49531 54.3738 8.5302 54.9697 8.81174C56.1662 9.37715 56.9522 10.7738 57.3604 13.0598C57.4934 13.8044 57.4738 16.3906 57.3281 17.3109C57.0241 19.2325 56.4708 20.7156 55.7006 21.6737C55.3272 22.1382 54.7071 22.5775 54.2223 22.7211C53.9094 22.8137 53.239 22.8357 52.642 22.7729ZM53.9154 22.6218C54.3959 22.5309 54.7692 22.3402 55.17 21.9809C56.1744 21.0804 56.9296 19.2213 57.2267 16.9179C57.3476 15.9798 57.3313 13.842 57.1973 13.059C56.8346 10.9412 56.0552 9.54928 54.9183 8.98882C54.4467 8.75633 54.374 8.73993 53.8146 8.73993C53.4145 8.73993 53.0703 8.78264 52.7777 8.86861L52.3397 8.99728L52.3073 11.4077C52.2659 14.4955 52.3666 22.2258 52.4512 22.4476C52.5052 22.5891 52.5646 22.6191 52.8324 22.6401C53.4627 22.6894 53.5669 22.6877 53.9154 22.6218ZM70.2801 23.9007C66.9988 23.3106 64.6522 20.9903 63.8854 17.5779C63.7868 17.1391 63.7432 16.648 63.7184 15.6978C63.6793 14.1947 63.8019 13.2617 64.1909 12.1024C64.9379 9.87654 66.2766 8.29925 68.2213 7.35391C70.2738 6.35609 73.0801 6.29074 74.8966 7.19845C76.9417 8.22044 78.1452 10.261 78.4505 13.2246C78.4916 13.6236 78.5154 14.0985 78.5034 14.2799L78.4816 14.6096L68.6927 14.6434L68.7114 15.2201C68.7546 16.5559 69.0426 17.7374 69.5754 18.7646C69.8176 19.2315 70.0103 19.486 70.4786 19.9574C71.5363 21.0223 72.5886 21.4346 74.2486 21.4346C75.4522 21.4346 76.3177 21.1951 77.2229 20.6116C77.4765 20.4482 77.7334 20.3144 77.7938 20.3144C77.932 20.3144 78.2501 20.7228 78.2501 20.9002C78.2501 21.1908 77.3012 22.128 76.3756 22.7514C75.6175 23.2621 74.4153 23.7244 73.3728 23.9063C72.6427 24.0336 71.0026 24.0307 70.2801 23.9007ZM73.2216 23.774C74.7541 23.5262 76.2633 22.7927 77.3479 21.7685C77.942 21.2075 78.1391 20.9368 78.0565 20.795C77.836 20.4166 77.8455 20.417 77.2825 20.7618C76.3862 21.3108 75.9369 21.4622 74.8838 21.57C73.6537 21.6958 72.5191 21.4908 71.4707 20.9533C70.7752 20.5967 69.9417 19.7765 69.5251 19.0388C68.9566 18.0321 68.6482 16.8561 68.5562 15.3448C68.5175 14.7102 68.5259 14.5521 68.6007 14.5049C68.6516 14.4727 70.857 14.4463 73.5376 14.4458L78.3824 14.4447V14.2539C78.3824 13.8201 78.2396 12.6542 78.1116 12.0429C77.597 9.5849 76.2383 7.83224 74.3009 7.12719C73.5297 6.84657 72.8002 6.72841 71.8388 6.72841C69.5608 6.72841 67.7003 7.4735 66.261 8.96218C65.1136 10.1491 64.4327 11.4825 64.0172 13.3565C63.892 13.9214 63.871 14.2149 63.871 15.401C63.871 16.5784 63.8924 16.8821 64.0138 17.4267C64.7851 20.8858 67.0673 23.1638 70.3463 23.7473C71.1772 23.8952 72.4017 23.9066 73.2216 23.774ZM68.5701 13.3392C68.5204 13.2589 68.6438 12.085 68.766 11.4769C69.0604 10.0113 69.5318 8.95298 70.1805 8.30128C70.5295 7.95072 70.6887 7.84144 70.9732 7.75717C71.1691 7.69918 71.3909 7.6519 71.4661 7.6521C71.7696 7.65292 72.1277 7.80733 72.3943 8.05231C73.1097 8.70984 73.519 10.1218 73.6001 12.2119L73.6401 13.2436L72.9522 13.2818C71.5715 13.3585 68.6062 13.3973 68.5701 13.3392ZM72.3569 13.1506L73.5076 13.1107L73.4662 12.2957C73.3201 9.42151 72.6148 7.85086 71.4707 7.85212C70.2273 7.85348 69.2336 9.44745 68.8205 12.1035C68.7697 12.4299 68.7277 12.8171 68.727 12.9638L68.7258 13.2305L69.966 13.2105C70.648 13.1995 71.724 13.1726 72.3569 13.1506ZM83.5083 23.9647C82.33 23.8387 80.4546 23.4293 79.8302 23.1617L79.5252 23.031L79.4836 21.5243C79.4607 20.6957 79.4343 19.5877 79.425 19.0622L79.4079 18.1067L79.5907 18.0193C79.6912 17.9713 79.8941 17.9264 80.0416 17.9196L80.3097 17.9072L80.5381 18.4678C81.4292 20.6547 82.4743 21.8339 83.8394 22.1926C84.3601 22.3294 85.3364 22.3306 85.7219 22.1949C86.8018 21.8148 87.3939 20.9995 87.399 19.8858C87.4051 18.5667 86.678 17.933 83.9312 16.8631C82.2293 16.2002 81.6357 15.859 80.9288 15.1376C80.1663 14.3593 79.8004 13.4734 79.7317 12.2396C79.6486 10.7487 80.1166 9.49184 81.1536 8.42078C82.1971 7.34292 83.5518 6.75875 85.3973 6.59082C87.0224 6.44295 89.5169 6.78663 90.8239 7.33848L91.0623 7.43916L91.1049 8.78204C91.1282 9.52062 91.1524 10.5107 91.1586 10.9822L91.1698 11.8396L90.8496 11.9581C90.3433 12.1456 90.3101 12.1221 90.0285 11.378C89.239 9.29236 88.3218 8.3055 86.8927 8.00405C86.0217 7.82033 85.2941 8.01784 84.7653 8.58156C84.3528 9.02135 84.1918 9.4119 84.1528 10.0677C84.1105 10.7783 84.2379 11.1624 84.6733 11.6374C85.21 12.2229 86.0892 12.7283 87.8406 13.4581C89.9858 14.352 91.0093 15.1108 91.5658 16.2199C91.9271 16.9402 92.0295 17.5155 91.9931 18.6229C91.9658 19.4538 91.9392 19.6246 91.7496 20.1825C91.1315 22.0015 89.7361 23.1991 87.5804 23.7605C86.8503 23.9507 86.7461 23.9605 85.2942 23.9764C84.4575 23.9855 83.6539 23.9802 83.5083 23.9647ZM86.65 23.7799C89.4602 23.3543 91.2745 21.8518 91.7504 19.556C91.9802 18.4474 91.873 17.2147 91.475 16.3903C90.9178 15.2362 89.9757 14.5394 87.6422 13.5557C85.9091 12.8251 84.8702 12.2057 84.4447 11.6495C84.0932 11.19 83.9789 10.8367 83.9836 10.2238C83.9907 9.29951 84.3421 8.59156 85.0129 8.15015C85.5745 7.78058 86.2783 7.69042 87.0978 7.88307C88.088 8.11587 88.8327 8.72191 89.5052 9.84233C89.7192 10.1989 90.1592 11.1998 90.3735 11.8175C90.4067 11.9133 90.445 11.9173 90.676 11.8493C90.8214 11.8065 90.9609 11.7511 90.9858 11.7262C91.0108 11.7013 91.0092 10.7565 90.9822 9.62663L90.9332 7.57235L90.6932 7.47103C90.2882 7.30005 89.2312 7.01333 88.5351 6.88564C88.0112 6.78954 87.5504 6.76466 86.3194 6.76601C84.85 6.76762 84.73 6.7772 84.1231 6.94138C82.3602 7.41827 81.0533 8.41025 80.3703 9.78971C80.0073 10.5228 79.8819 11.0879 79.886 11.9716C79.8918 13.2262 80.2347 14.1523 80.9929 14.9614C81.6453 15.6577 82.4935 16.1544 83.9383 16.6864C85.0752 17.105 86.2488 17.6895 86.6936 18.0586C86.955 18.2755 87.1604 18.5227 87.3136 18.8046C87.5315 19.2056 87.5427 19.2586 87.5428 19.8858C87.5428 20.49 87.5254 20.5823 87.333 20.9872C86.8304 22.045 85.825 22.5702 84.5081 22.4628C82.7187 22.3169 81.459 21.137 80.4333 18.6461C80.1658 17.9964 80.1475 17.9829 79.7408 18.1371L79.5541 18.2079L79.6008 20.5307C79.6422 22.5923 79.66 22.8631 79.7584 22.9384C80.0525 23.1633 81.9562 23.6138 83.2769 23.7711C84.302 23.8932 85.8748 23.8973 86.65 23.7799ZM0.0879134 23.5683C0.0329221 23.5462 0.00523705 23.3818 0.00523705 23.0775C0.00523705 22.531 -0.0296924 22.5555 1.03042 22.3594C1.84351 22.209 2.1344 22.0551 2.49345 21.5857C3.1896 20.6756 3.34007 18.9233 3.34163 11.7078C3.3431 4.93153 3.21218 3.50605 2.4922 2.45875C2.17277 1.9941 1.63445 1.7418 0.732789 1.63413L0.0383076 1.55121L0 0.469963L0.217577 0.431303C0.337244 0.41004 4.54169 0.401056 9.56079 0.411337L18.6864 0.430031L18.7292 0.693837C18.7528 0.838931 18.7914 2.32719 18.8151 4.00108L18.8581 7.04452L18.3876 7.18702C17.6793 7.40153 17.6836 7.40414 17.365 6.56353C16.5824 4.49873 15.685 3.30895 14.4571 2.70816C13.6102 2.2938 13.2186 2.2437 10.8268 2.2437H8.74538L8.7095 2.58995C8.64221 3.23924 8.53597 7.41599 8.5367 9.38296L8.53744 11.345L9.14924 11.3415C9.48573 11.3396 10.1493 11.3149 10.6237 11.2867C11.337 11.2442 11.5489 11.2064 11.8473 11.0687C12.5805 10.7302 13.0793 9.98533 13.3849 8.7725L13.5427 8.14637L14.6224 8.10806V16.0329L13.5423 15.9946L13.389 15.3681C13.101 14.1909 12.5466 13.3481 11.8617 13.046C11.5454 12.9064 10.7626 12.8271 9.24845 12.7812L8.53744 12.7596V14.2483C8.53744 15.8705 8.62687 18.065 8.74152 19.256C8.90134 20.9163 9.32685 21.8338 10.091 22.1658C10.2369 22.2292 10.6986 22.3322 11.1169 22.3946C11.5353 22.4571 11.9296 22.535 11.9933 22.5678C12.1548 22.6509 12.1643 23.5108 12.0044 23.572C11.8793 23.6199 0.207066 23.6163 0.0879134 23.5683ZM11.9768 23.0514C11.9768 22.8519 11.9589 22.6887 11.9371 22.6887C11.6219 22.6887 10.1533 22.3729 9.91728 22.2544C9.07741 21.8328 8.68916 20.8305 8.53851 18.6951C8.43142 17.1772 8.32486 12.7177 8.39402 12.6488C8.45675 12.5862 11.2531 12.6973 11.5799 12.7754C12.4835 12.9911 13.18 13.8774 13.5288 15.2554L13.6825 15.8627L14.4901 15.902V8.2453H14.0602C13.6583 8.2453 13.6303 8.25497 13.6303 8.3939C13.6303 8.64379 13.3794 9.43453 13.1419 9.93319C12.77 10.7142 12.2461 11.1856 11.5799 11.3388C11.4162 11.3765 10.6435 11.4367 9.86275 11.4728C8.7616 11.5236 8.4312 11.5203 8.38967 11.4582C8.31291 11.3432 8.48788 2.65995 8.57509 2.25648L8.60796 2.10438L13.4649 2.14477L14.0301 2.34658C15.339 2.81402 16.2809 3.76855 17.0678 5.42517C17.2446 5.79735 17.4712 6.33929 17.5714 6.62948C17.6715 6.91967 17.7602 7.16632 17.7684 7.1776C17.7765 7.18888 17.9938 7.13433 18.2511 7.05638L18.7191 6.91465L18.6862 4.76054C18.6681 3.57578 18.6361 2.15384 18.6151 1.60067L18.577 0.59491H0.131207L0.17059 1.41872L0.765859 1.49296C1.55995 1.592 1.85112 1.67826 2.17088 1.90924C2.65561 2.25936 2.95371 2.77371 3.14142 3.58381C3.43306 4.84239 3.53802 7.68073 3.48941 12.9938C3.43805 18.6078 3.36704 19.7754 3.00811 20.908C2.71291 21.8395 2.16348 22.3333 1.25596 22.4828C1.00619 22.5239 0.65236 22.5895 0.469675 22.6286L0.137519 22.6996V23.4142H11.9768V23.0514ZM32.6922 23.5559C32.6319 23.5176 32.6122 23.3655 32.6261 23.0455L32.6459 22.5898L32.8774 22.5406C33.0047 22.5136 33.2781 22.4599 33.4851 22.4214C34.1255 22.3021 34.4935 21.9554 34.7006 21.2766C34.8693 20.7235 34.9437 18.9541 34.9476 15.401C34.9523 11.0555 34.8615 10.0293 34.4209 9.44756C34.1821 9.13227 34.0099 9.04261 33.4304 8.93171C33.1444 8.87697 32.8435 8.81828 32.7616 8.80129C32.6291 8.77377 32.6128 8.73071 32.6128 8.4075C32.6128 8.09322 32.6327 8.03644 32.7616 7.98359C32.9596 7.90242 39.5118 6.59651 39.7211 6.59651H39.8844L39.8524 7.56929C39.8348 8.10432 39.8066 8.88338 39.7898 9.30052L39.7593 10.059L39.9967 9.63212C40.7565 8.26571 41.6087 7.41749 42.7419 6.89966C43.364 6.6154 43.779 6.53055 44.5475 6.53055C45.459 6.53055 46.3701 6.82709 46.3701 7.12373C46.3701 7.32318 44.7643 11.5541 44.6758 11.588C44.6325 11.6045 44.319 11.4849 43.979 11.3222C43.2698 10.9829 42.6045 10.817 41.9587 10.8184C41.1545 10.8201 40.2561 11.1155 39.9014 11.4948C39.7496 11.6571 39.7489 11.6668 39.7112 14.09C39.6739 16.4896 39.7541 19.4167 39.8894 20.5939C40.0047 21.5968 40.272 22.0906 40.8239 22.3205C41.0081 22.3972 42.1731 22.5563 42.5533 22.5567C42.5821 22.5568 42.597 22.7868 42.5863 23.0679L42.567 23.579L37.6726 23.5948C34.9806 23.6034 32.7395 23.5859 32.6922 23.5559ZM42.4678 22.6999L41.9552 22.6568C40.7729 22.5572 40.449 22.4389 40.1385 21.993C39.6886 21.3469 39.5907 20.1547 39.5907 15.3239V11.5535L39.7546 11.3795C39.9615 11.1599 40.6082 10.8535 41.0656 10.7584C41.9942 10.5653 43.1813 10.7321 44.1098 11.1861C44.3762 11.3164 44.6054 11.4119 44.6191 11.3983C44.6464 11.3711 46.1713 7.35282 46.2187 7.18333C46.2401 7.10641 46.1523 7.0394 45.8958 6.93705C45.3468 6.71799 44.8707 6.64287 44.2565 6.67841C42.6139 6.77346 41.1561 7.86163 40.106 9.77654C39.9317 10.0944 39.7512 10.3548 39.7048 10.3551C39.6375 10.3556 39.6296 9.99043 39.6658 8.53816L39.7111 6.72058L39.5517 6.75806C39.464 6.77868 38.1422 7.0457 36.6143 7.35144C33.3375 8.00718 32.882 8.10274 32.8039 8.15089C32.7715 8.17082 32.7451 8.28868 32.7451 8.41281C32.7451 8.66185 32.7159 8.64741 33.4605 8.76682C34.484 8.93095 34.8455 9.42858 34.9981 10.8834C35.1972 12.7802 35.1176 20.1745 34.8874 21.184C34.7696 21.7001 34.4654 22.1973 34.1592 22.3739C34.0457 22.4394 33.6885 22.5444 33.3655 22.6073L32.7781 22.7217L32.7382 23.4142H42.4678V22.6999Z" fill="black"/>
<path d="M11.9768 23.0514C11.9768 22.8519 11.9589 22.6887 11.9371 22.6887C11.6219 22.6887 10.1533 22.3729 9.91728 22.2544C9.07741 21.8328 8.68916 20.8305 8.53851 18.6951C8.43142 17.1772 8.32486 12.7177 8.39402 12.6488C8.45675 12.5862 11.2531 12.6973 11.5799 12.7754C12.4835 12.9911 13.18 13.8774 13.5288 15.2554L13.6825 15.8627L14.4901 15.902V8.2453H14.0602C13.6583 8.2453 13.6303 8.25497 13.6303 8.3939C13.6303 8.64379 13.3794 9.43453 13.1419 9.93319C12.77 10.7142 12.2461 11.1856 11.5799 11.3388C11.4162 11.3765 10.6435 11.4367 9.86275 11.4728C8.7616 11.5236 8.4312 11.5203 8.38967 11.4582C8.31291 11.3432 8.48788 2.65995 8.57509 2.25648L8.60796 2.10438L13.4649 2.14477L14.0301 2.34658C15.339 2.81402 16.2809 3.76855 17.0678 5.42517C17.2446 5.79735 17.4712 6.33929 17.5714 6.62948C17.6715 6.91967 17.7602 7.16632 17.7684 7.1776C17.7765 7.18888 17.9938 7.13433 18.2511 7.05638L18.7191 6.91465L18.6862 4.76054C18.6681 3.57578 18.6361 2.15384 18.6151 1.60067L18.577 0.59491H0.131207L0.17059 1.41872L0.765859 1.49296C1.55995 1.592 1.85112 1.67826 2.17088 1.90924C2.65561 2.25936 2.95371 2.77371 3.14142 3.58381C3.43306 4.84239 3.53802 7.68073 3.48941 12.9938C3.43805 18.6078 3.36704 19.7754 3.00811 20.908C2.71291 21.8395 2.16348 22.3333 1.25596 22.4828C1.00619 22.5239 0.65236 22.5895 0.469675 22.6286L0.137519 22.6996V23.4142H11.9768V23.0514Z" fill="black"/>
<path fill-rule="evenodd" clip-rule="evenodd" d="M26.3294 23.688C27.503 23.4148 28.4385 22.9978 29.2748 22.375C31.3089 20.8602 32.4236 18.5374 32.5265 15.5989C32.6279 12.702 31.7518 10.2326 30.0575 8.6404C28.6823 7.34794 26.9492 6.72841 24.7089 6.72841C22.3342 6.72841 20.4217 7.46261 18.9503 8.93913C17.3742 10.5208 16.5405 12.7271 16.5405 15.3167C16.5405 18.0031 17.2937 20.1717 18.7544 21.6911C19.5598 22.5288 20.3438 23.0311 21.468 23.4299C21.8655 23.5709 22.158 23.6386 23.2208 23.8356C23.3117 23.8525 23.9219 23.8556 24.5766 23.8426C25.4631 23.8249 25.9108 23.7854 26.3294 23.688ZM21.5769 18.4018C21.963 20.7655 22.7334 22.2593 23.8198 22.7507C24.2576 22.9488 25.0589 22.9377 25.5119 22.7274C26.7614 22.1473 27.4312 20.478 27.6496 17.4002C27.9539 13.1111 27.2486 9.53127 25.8511 8.27234C25.2219 7.70549 24.2432 7.51993 23.5371 7.83358C22.5069 8.29116 21.8452 9.64576 21.532 11.9386C21.309 13.5713 21.3321 16.9034 21.5769 18.4018Z" fill="black"/>
<path d="M42.4678 22.6999L41.9552 22.6568C40.7729 22.5572 40.449 22.4389 40.1385 21.993C39.6886 21.3469 39.5907 20.1547 39.5907 15.3239V11.5535L39.7546 11.3795C39.9615 11.1599 40.6082 10.8535 41.0656 10.7584C41.9942 10.5653 43.1813 10.7321 44.1098 11.1861C44.3762 11.3164 44.6054 11.4119 44.6191 11.3983C44.6464 11.3711 46.1713 7.35282 46.2187 7.18333C46.2401 7.10641 46.1523 7.0394 45.8958 6.93705C45.3468 6.71799 44.8707 6.64287 44.2565 6.67841C42.6139 6.77346 41.1561 7.86163 40.106 9.77654C39.9317 10.0944 39.7512 10.3548 39.7048 10.3551C39.6375 10.3556 39.6296 9.99043 39.6658 8.53816L39.7111 6.72058L39.5517 6.75806C39.464 6.77868 38.1422 7.0457 36.6143 7.35144C33.3375 8.00718 32.882 8.10274 32.8039 8.15089C32.7715 8.17082 32.7451 8.28868 32.7451 8.41281C32.7451 8.66185 32.7159 8.64741 33.4605 8.76682C34.484 8.93095 34.8455 9.42858 34.9981 10.8834C35.1972 12.7802 35.1176 20.1745 34.8874 21.184C34.7696 21.7001 34.4654 22.1973 34.1592 22.3739C34.0457 22.4394 33.6885 22.5444 33.3655 22.6073L32.7781 22.7217L32.7382 23.4142H42.4678V22.6999Z" fill="black"/>
<path fill-rule="evenodd" clip-rule="evenodd" d="M55.0015 23.7761C57.0107 23.4757 58.4845 22.7877 59.7326 21.5675C61.5367 19.8038 62.4057 17.3147 62.2882 14.2469C62.2277 12.6674 61.969 11.6357 61.3125 10.3557C60.4232 8.62173 58.902 7.40542 57.1749 7.04725C55.8793 6.77858 54.2123 6.98902 52.9449 7.58124C52.6291 7.72883 52.3267 7.84959 52.2731 7.84959C52.1878 7.84959 52.1786 7.36121 52.2003 4.00276L52.2252 0.155935L51.9598 0.208974C51.8139 0.238145 50.3254 0.514703 48.652 0.823546C46.9786 1.13239 45.5442 1.40034 45.4645 1.41899C45.3432 1.44734 45.322 1.49342 45.335 1.69991C45.3494 1.93003 45.3684 1.95085 45.6123 2.00436C46.4507 2.18833 46.6 2.25388 46.9118 2.575C47.2937 2.96838 47.4662 3.47072 47.5794 4.51903C47.6696 5.35438 47.6896 19.7465 47.6035 21.8709L47.5524 23.1305L48.2345 23.2759C50.8171 23.8266 53.3915 24.0169 55.0015 23.7761ZM52.3243 22.6574C52.3654 22.7069 52.5084 22.7588 52.642 22.7729C53.239 22.8357 53.9094 22.8137 54.2223 22.7211C54.7071 22.5775 55.3272 22.1382 55.7006 21.6737C56.4708 20.7156 57.0241 19.2325 57.3281 17.3109C57.4738 16.3906 57.4934 13.8044 57.3604 13.0598C56.9522 10.7738 56.1662 9.37715 54.9697 8.81174C54.3738 8.5302 53.5334 8.49531 52.7527 8.71973L52.2236 8.87184L52.1637 10.9493C52.0881 13.5685 52.2109 22.5212 52.3243 22.6574Z" fill="black"/>
<path fill-rule="evenodd" clip-rule="evenodd" d="M73.2216 23.774C74.7541 23.5262 76.2633 22.7927 77.3479 21.7685C77.942 21.2075 78.1391 20.9368 78.0565 20.795C77.836 20.4166 77.8455 20.417 77.2825 20.7618C76.3862 21.3108 75.9369 21.4622 74.8838 21.57C73.6537 21.6958 72.5191 21.4908 71.4707 20.9533C70.7752 20.5967 69.9417 19.7765 69.5251 19.0388C68.9566 18.0321 68.6482 16.8561 68.5562 15.3448C68.5175 14.7102 68.5259 14.5521 68.6007 14.5049C68.6516 14.4727 70.857 14.4463 73.5376 14.4458L78.3824 14.4447V14.2539C78.3824 13.8201 78.2396 12.6542 78.1116 12.0429C77.597 9.5849 76.2383 7.83224 74.3009 7.12719C73.5297 6.84657 72.8002 6.72841 71.8388 6.72841C69.5608 6.72841 67.7003 7.4735 66.261 8.96218C65.1136 10.1491 64.4327 11.4825 64.0172 13.3565C63.892 13.9214 63.871 14.2149 63.871 15.401C63.871 16.5784 63.8924 16.8821 64.0138 17.4267C64.7851 20.8858 67.0673 23.1638 70.3463 23.7473C71.1772 23.8952 72.4017 23.9066 73.2216 23.774ZM68.766 11.4769C68.6438 12.085 68.5204 13.2589 68.5701 13.3392C68.6062 13.3973 71.5715 13.3585 72.9522 13.2818L73.6401 13.2436L73.6001 12.2119C73.519 10.1218 73.1097 8.70984 72.3943 8.05231C72.1277 7.80733 71.7696 7.65292 71.4661 7.6521C71.3909 7.6519 71.1691 7.69918 70.9732 7.75717C70.6887 7.84144 70.5295 7.95072 70.1805 8.30128C69.5318 8.95298 69.0604 10.0113 68.766 11.4769Z" fill="black"/>
<path d="M86.65 23.7799C89.4602 23.3543 91.2745 21.8518 91.7504 19.556C91.9802 18.4474 91.873 17.2147 91.475 16.3903C90.9178 15.2362 89.9757 14.5394 87.6422 13.5557C85.9091 12.8251 84.8702 12.2057 84.4447 11.6495C84.0932 11.19 83.9789 10.8367 83.9836 10.2238C83.9907 9.29951 84.3421 8.59156 85.0129 8.15015C85.5745 7.78058 86.2783 7.69042 87.0978 7.88307C88.088 8.11587 88.8327 8.72191 89.5052 9.84233C89.7192 10.1989 90.1592 11.1998 90.3735 11.8175C90.4067 11.9133 90.445 11.9173 90.676 11.8493C90.8214 11.8065 90.9609 11.7511 90.9858 11.7262C91.0108 11.7013 91.0092 10.7565 90.9822 9.62663L90.9332 7.57235L90.6932 7.47103C90.2882 7.30005 89.2312 7.01333 88.5351 6.88564C88.0112 6.78954 87.5504 6.76466 86.3194 6.76601C84.85 6.76762 84.73 6.7772 84.1231 6.94138C82.3602 7.41827 81.0533 8.41025 80.3703 9.78971C80.0073 10.5228 79.8819 11.0879 79.886 11.9716C79.8918 13.2262 80.2347 14.1523 80.9929 14.9614C81.6453 15.6577 82.4935 16.1544 83.9383 16.6864C85.0752 17.105 86.2488 17.6895 86.6936 18.0586C86.955 18.2755 87.1604 18.5227 87.3136 18.8046C87.5315 19.2056 87.5427 19.2586 87.5428 19.8858C87.5428 20.49 87.5254 20.5823 87.333 20.9872C86.8304 22.045 85.825 22.5702 84.5081 22.4628C82.7187 22.3169 81.459 21.137 80.4333 18.6461C80.1658 17.9964 80.1475 17.9829 79.7408 18.1371L79.5541 18.2079L79.6008 20.5307C79.6422 22.5923 79.66 22.8631 79.7584 22.9384C80.0525 23.1633 81.9562 23.6138 83.2769 23.7711C84.302 23.8932 85.8748 23.8973 86.65 23.7799Z" fill="black"/>
</svg>
