<svg width="108" height="24" viewBox="0 0 108 24" fill="none" xmlns="http://www.w3.org/2000/svg">
<path opacity="0.2" d="M101.233 0L101.195 0.00749532L96.5598 0.359775L96.5225 0.36727V1.62648H97.1486C97.3347 1.62648 97.4674 1.66876 97.5585 1.78389C97.6496 1.89901 97.7001 2.09837 97.7001 2.42099V21.7889C97.7001 22.0534 97.6737 22.2146 97.5957 22.3061C97.5178 22.3975 97.3811 22.4335 97.1486 22.4335H96.9324V23.6627H96.9697V23.7002H102V22.4335H101.643C101.454 22.4335 101.35 22.4121 101.3 22.3585C101.25 22.305 101.233 22.2049 101.233 22.0287V10.6508C101.233 9.92497 101.295 9.28361 101.509 8.82948C101.722 8.37536 102.077 8.10244 102.701 8.10244C102.926 8.10244 103.1 8.13936 103.23 8.20737C103.36 8.27538 103.448 8.37406 103.513 8.51468C103.644 8.79592 103.67 9.24032 103.67 9.84884V21.9388C103.67 22.1556 103.617 22.2749 103.536 22.3435C103.454 22.4122 103.337 22.4335 103.178 22.4335H102.813V23.7002H108V22.4335H107.694C107.491 22.4335 107.37 22.4055 107.299 22.3285C107.229 22.2516 107.203 22.1135 107.203 21.8788V9.19675C107.203 8.12277 107.009 7.28305 106.547 6.7158C106.084 6.14856 105.351 5.86134 104.296 5.86134C102.959 5.86134 101.995 6.63393 101.233 7.80262V0ZM101.158 0.0824485V8.04997L101.233 7.93754C101.997 6.72577 102.952 5.93629 104.296 5.93629C105.337 5.93629 106.041 6.22147 106.487 6.76827C106.933 7.31507 107.128 8.13199 107.128 9.19675V21.8788C107.128 22.1198 107.155 22.2797 107.247 22.381C107.34 22.4824 107.484 22.5084 107.694 22.5084H107.925V23.6252H102.887V22.5084H103.178C103.344 22.5084 103.484 22.4908 103.588 22.4035C103.691 22.3162 103.744 22.1676 103.744 21.9388V9.84884C103.744 9.23845 103.723 8.79001 103.58 8.4847C103.509 8.33204 103.412 8.21568 103.267 8.13991C103.123 8.06414 102.934 8.02748 102.701 8.02748C102.054 8.02748 101.664 8.31791 101.441 8.79201C101.219 9.2661 101.158 9.92082 101.158 10.6508V22.0287C101.158 22.2092 101.173 22.3309 101.248 22.411C101.323 22.4911 101.448 22.5084 101.643 22.5084H101.926V23.6252H97.0144V22.5084H97.1486C97.389 22.5084 97.5561 22.4751 97.6554 22.3585C97.7547 22.242 97.7821 22.059 97.7821 21.7889V2.42099C97.7821 2.09025 97.7265 1.87599 97.6181 1.73891C97.5097 1.60184 97.3464 1.55153 97.1486 1.55153H96.5971V0.442224L101.158 0.0824485ZM76.8305 21.9099C75.8841 21.9099 75.7966 21.2851 75.7966 19.0566C75.7966 15.1358 76.0623 14.6009 78.1303 13.4415V19.7399C78.1303 20.9891 77.9235 21.9099 76.8305 21.9099ZM20.783 13.2055C20.8707 7.91677 21.0489 7.35216 22.1123 7.35216C23.2941 7.35216 23.1751 8.0355 23.1751 13.2055H20.783ZM22.1123 23.9599C25.0076 23.9599 26.4846 22.7112 26.1293 18.196H24.8893C24.9771 21.9984 24.3568 22.3555 22.969 22.3555C20.9306 22.3555 20.7827 21.2851 20.7827 14.9873C20.7827 14.8686 20.7827 14.6904 20.7827 14.4527H26.4245C26.4245 8.09521 25.2132 5.89747 22.1121 5.89747C19.2457 5.89747 17.0308 8.95676 17.0308 15.0468C17.031 21.7307 19.0696 23.9599 22.1123 23.9599ZM43.1648 23.9599C45.7045 23.9599 47.1226 22.2358 47.1226 19.6212C47.1226 16.8886 46.1782 15.7011 44.2275 13.5314C42.3673 11.4814 41.6583 10.7093 41.6583 9.01624C41.6583 8.0355 41.9831 7.41188 43.1057 7.41188C44.2275 7.41188 44.8781 7.85753 45.0842 9.57989L45.291 11.2445H46.591V6.19441H45.5276C45.4694 6.81778 45.4694 7.17395 45.2912 7.08425C45.0262 6.84752 43.9924 5.89723 42.5152 5.89723C40.4768 5.89723 38.6451 7.2037 38.6451 10.0855C38.6451 12.7888 39.561 13.8581 41.5402 16.117C43.2538 18.0771 44.1095 18.9386 44.1095 20.542C44.1095 21.8197 43.7558 22.5328 42.4264 22.5328C41.3031 22.5328 40.5645 21.9981 40.2108 19.7397L39.9745 18.1955H38.6747V23.6624H39.7677C39.8858 23.0971 40.1813 22.5623 40.4472 22.7405C40.8307 23.1866 41.7172 23.9599 43.1648 23.9599ZM67.4267 23.9599C70.322 23.9599 71.799 22.7112 71.4436 18.196H70.2037C70.2924 21.9984 69.6721 22.3555 68.2834 22.3555C66.245 22.3555 66.0973 21.2851 66.0973 14.9873C66.0973 14.8686 66.0973 14.6904 66.0973 14.4527H71.7389C71.7389 8.09521 70.5288 5.89747 67.4267 5.89747C64.561 5.89747 62.3454 8.95676 62.3454 15.0468C62.3454 21.7307 64.3847 23.9599 67.4267 23.9599ZM75.3535 23.9599C77.0966 23.9599 77.9531 22.7112 78.426 21.8199C78.7212 23.1863 79.1045 23.9599 80.9073 23.9599C82.9745 23.9599 83.447 22.7112 83.447 20.2758H82.3845C82.3845 22.0288 82.3244 22.207 81.9414 22.207C81.586 22.207 81.586 22.0586 81.586 21.0771V10.2639C81.586 6.78731 79.7258 5.89747 77.2738 5.89747C74.1422 5.89747 72.3697 8.09521 73.5517 10.2937C74.0537 11.2142 75.0286 11.4817 75.855 10.8583C76.7126 10.2052 76.8603 8.83755 74.6742 7.73928C74.9695 7.47137 75.8262 7.23344 76.4172 7.23344C78.1307 7.23344 78.1307 7.85824 78.1307 9.4626C78.1307 9.69981 78.1307 12.047 78.1307 12.4922C73.8767 13.9488 72.3997 14.7501 72.3997 19.3559C72.3993 22.9199 73.758 23.9599 75.3535 23.9599ZM26.4057 23.6629H31.7823V22.4745H31.4565C31.0725 22.4745 31.0134 22.3845 31.0134 22.0288V10.6506C31.0134 9.19469 31.2497 8.06548 32.5199 8.06548C33.4357 8.06548 33.5252 8.63008 33.5252 9.84804V21.9389C33.5252 22.3845 33.3174 22.4745 32.9926 22.4745H32.6678V23.6629H37.7777V22.4745H37.5128C37.0992 22.4745 36.9812 22.3555 36.9812 21.8801V9.19469C36.9812 7.05522 36.213 5.89723 34.1164 5.89723C32.7565 5.89723 31.7226 6.69905 30.9545 7.91653V5.9855L26.3763 6.31217V7.50063H26.9673C27.3513 7.50063 27.5583 7.67931 27.5583 8.33243V21.7902C27.5583 22.3258 27.4391 22.4745 26.9673 22.4745H26.4059V23.6629H26.4057ZM90.281 20.0671C90.281 22.8904 90.665 23.9599 93.442 23.9599C95.2433 23.9599 96.4546 23.1863 96.4546 20.6027V18.0773H95.1851V20.8701C95.1851 21.9101 95.0375 22.326 94.4465 22.326C93.8555 22.326 93.7375 21.9101 93.7375 20.9891V7.50087H96.3955V6.19441H93.767V1.58904H92.556C91.197 5.7183 90.5765 6.19464 89.4539 6.19464H89.0995V7.47137H90.2812V20.0671H90.281ZM0.0400593 23.6629H4.64965V22.4745H3.94061C3.28976 22.4745 2.99522 21.701 2.99522 20.6315V5.74804L6.71667 23.6322H8.48915L12.2113 5.6888V20.9284C12.2113 21.9981 12.0341 22.4742 11.4431 22.4742H10.616V23.6627H17.2621V22.4742H16.7598C16.1691 22.4742 15.9926 21.9981 15.9926 20.9284V3.13392C15.9926 2.06466 16.1691 1.58904 16.7598 1.58904H17.2621V0.400586H11.7093L8.81397 15.0775L5.7417 0.400586H0.0400593V1.58904H0.513704C1.10469 1.58904 1.45909 2.30212 1.45909 3.40183V20.6317C1.45909 21.7012 1.10469 22.4747 0.513704 22.4747H0.0400593V23.6629ZM47.6552 23.6629H54.3604V22.4745H53.6809C53.0596 22.4745 52.8834 22.2656 52.8834 21.2258V12.6116H57.3737V21.2258C57.3737 22.2656 57.166 22.4745 56.5753 22.4745H55.8965V23.6629H62.5722V22.4745H61.9812C61.3606 22.4745 61.1844 22.2656 61.1844 21.2258V2.83722C61.1844 1.76677 61.3606 1.58904 61.9812 1.58904H62.5722V0.400586H55.8965V1.58904H56.5753C57.166 1.58904 57.3737 1.76677 57.3737 2.83722V11.2142H52.8834V2.83722C52.8834 1.76677 53.0596 1.58904 53.6809 1.58904H54.3604V0.400586H47.6552V1.58904H48.2748C48.8951 1.58904 49.0723 1.76677 49.0723 2.83722V21.8202C49.0723 22.326 48.8951 22.4747 48.2748 22.4747H47.6552V23.6629ZM83.8417 23.6629H89.306V22.4745H88.597C88.213 22.4745 88.0654 22.326 88.0654 21.8497V0.0444083L83.4281 0.400344V1.5888H84.0773C84.4622 1.5888 84.6099 1.70753 84.6099 2.18267V21.9099C84.6099 22.3553 84.5498 22.4745 84.1372 22.4745H83.8419V23.6629H83.8417ZM96.9721 23.6629H101.965V22.4745H101.639C101.256 22.4745 101.196 22.3845 101.196 22.0288V10.6506C101.196 9.19469 101.432 8.06548 102.703 8.06548C103.618 8.06548 103.707 8.63008 103.707 9.84804V21.9389C103.707 22.3845 103.5 22.4745 103.175 22.4745H102.851V23.6629H107.96V22.4745H107.695C107.282 22.4745 107.164 22.3555 107.164 21.8801V9.19469C107.164 7.05522 106.395 5.89723 104.298 5.89723C102.939 5.89723 101.965 6.69905 101.196 7.91653V0.0444083L96.5579 0.400344V1.5888H97.1496C97.5326 1.5888 97.7406 1.76653 97.7406 2.4206V21.7902C97.7406 22.3258 97.6225 22.4745 97.1496 22.4745H96.9724V23.6629H96.9721ZM37.8672 6.78732C40.8204 4.56031 41.4114 2.89623 40.4372 1.38085C39.9056 0.549054 38.6943 0.0146669 37.808 0.757243C36.7436 1.64853 37.0105 3.22242 38.9898 4.08396C38.6344 4.50034 37.808 5.33214 37.1286 5.9855L37.8672 6.78732ZM66.0971 13.2055C66.1865 7.91677 66.363 7.35216 67.4264 7.35216C68.6082 7.35216 68.4899 8.0355 68.4899 13.2055H66.0971ZM34.1194 5.86134C32.7849 5.86134 31.7618 6.63038 30.9966 7.79513V5.94379L30.9519 5.95128L26.3758 6.27358H26.3386V7.54029H26.9646C27.1504 7.54029 27.2833 7.58258 27.3745 7.69769C27.4657 7.8128 27.5236 8.01231 27.5236 8.33479V21.7889C27.5236 22.0533 27.4898 22.2146 27.4118 22.3061C27.3337 22.3976 27.1966 22.4335 26.9646 22.4335H26.3684V23.7002H31.8239V22.4335H31.4587C31.2696 22.4335 31.1662 22.4121 31.1159 22.3585C31.0655 22.3049 31.0488 22.2049 31.0488 22.0287V10.6508C31.0488 9.92498 31.1114 9.28361 31.3245 8.82948C31.5377 8.37535 31.8931 8.10244 32.517 8.10244C32.7421 8.10244 32.9165 8.13937 33.0462 8.20737C33.1758 8.27538 33.2639 8.37406 33.3294 8.51468C33.4604 8.79591 33.4859 9.24032 33.4859 9.84884V21.9388C33.4859 22.1557 33.4404 22.2749 33.3592 22.3435C33.2779 22.4122 33.153 22.4335 32.994 22.4335H32.6288V23.7002H37.816V22.4335H37.5105C37.3073 22.4335 37.193 22.4055 37.1229 22.3285C37.0528 22.2516 37.0186 22.1135 37.0186 21.8788V9.19675C37.0186 8.12277 36.8252 7.28305 36.3627 6.7158C35.9003 6.14856 35.1746 5.86134 34.1194 5.86134ZM34.1194 5.93629C35.1607 5.93629 35.8573 6.22147 36.3031 6.76827C36.7489 7.31507 36.944 8.13199 36.944 9.19675V21.8788C36.944 22.1198 36.971 22.2797 37.0633 22.381C37.1556 22.4824 37.3001 22.5084 37.5105 22.5084H37.7415V23.6252H32.7033V22.5084H32.994C33.1599 22.5084 33.3006 22.4908 33.4039 22.4035C33.5072 22.3162 33.5604 22.1676 33.5604 21.9388V9.84884C33.5604 9.23845 33.5461 8.79002 33.4039 8.4847C33.3328 8.33204 33.2279 8.21568 33.0834 8.13991C32.9389 8.06414 32.7498 8.02748 32.517 8.02748C31.8707 8.02748 31.48 8.31791 31.2575 8.79201C31.0349 9.2661 30.9743 9.92081 30.9743 10.6508V22.0287C30.9743 22.2092 30.9885 22.3309 31.0637 22.411C31.1389 22.4911 31.2638 22.5084 31.4587 22.5084H31.7419V23.6252H26.4429V22.5084H26.9646C27.2046 22.5084 27.372 22.475 27.4714 22.3585C27.5708 22.242 27.5981 22.059 27.5981 21.7889V8.33479C27.5981 8.00416 27.5427 7.78225 27.4341 7.64522C27.3256 7.50819 27.1621 7.46533 26.9646 7.46533H26.4131V6.34853L30.9146 6.02623V8.04997L30.9892 7.93754C31.7529 6.72652 32.7744 5.93629 34.1194 5.93629ZM22.1128 5.86134C20.6661 5.86134 19.3855 6.63497 18.4683 8.16989C17.5511 9.70481 16.9926 11.9934 16.9926 15.0431C16.9926 18.3891 17.5048 20.6261 18.4012 22.0287C19.2976 23.4313 20.5821 24 22.1128 24C23.5657 24 24.6735 23.6817 25.3697 22.7933C26.0659 21.9048 26.3452 20.4535 26.1671 18.1911V18.1537H24.848L24.8554 18.1986C24.8997 20.0979 24.763 21.133 24.453 21.6839C24.2979 21.9594 24.1014 22.111 23.8567 22.2011C23.612 22.2913 23.3151 22.3136 22.9698 22.3136C22.4636 22.3136 22.0834 22.2512 21.7923 22.0587C21.5012 21.8662 21.2958 21.5466 21.1513 21.0244C20.8624 19.9799 20.8234 18.1321 20.8234 14.9831C20.8234 14.8734 20.8234 14.7011 20.8234 14.4884H26.4653V14.451C26.4653 11.2698 26.1625 9.12765 25.4666 7.77264C24.7706 6.41763 23.6723 5.86134 22.1128 5.86134ZM22.1128 5.93629C23.6544 5.93629 24.7145 6.47641 25.3995 7.81012C26.0816 9.13813 26.3881 11.2597 26.3907 14.4135H20.7489V14.451C20.7489 14.6879 20.7489 14.8651 20.7489 14.9831C20.7489 18.1327 20.7822 19.9743 21.0768 21.0394C21.2241 21.5719 21.4377 21.9138 21.7476 22.1187C22.0575 22.3236 22.4569 22.396 22.9698 22.396C23.3184 22.396 23.6198 22.3716 23.8791 22.2761C24.1384 22.1805 24.3574 22.0105 24.52 21.7214C24.8421 21.1491 24.9705 20.1039 24.93 18.2361H26.0926C26.2633 20.4659 25.9833 21.8892 25.3101 22.7483C24.6327 23.6127 23.5549 23.9176 22.1128 23.9176C20.6005 23.9176 19.3444 23.3738 18.4608 21.9913C17.5773 20.6087 17.0671 18.3813 17.0671 15.0431C17.0671 12.0027 17.621 9.72508 18.5279 8.20737C19.4348 6.68966 20.693 5.93629 22.1128 5.93629ZM22.1128 7.31543C21.8436 7.31543 21.6192 7.35201 21.442 7.49532C21.2648 7.63862 21.1421 7.87719 21.047 8.28232C20.8568 9.09258 20.7932 10.5624 20.7489 13.2067V13.2442H23.2158V13.2067C23.2158 10.6225 23.2454 9.15908 23.1264 8.33479C23.0668 7.92264 22.971 7.66454 22.8059 7.51031C22.6408 7.35608 22.4118 7.31543 22.1128 7.31543ZM22.1128 7.39038C22.4045 7.39038 22.6088 7.43484 22.7537 7.57027C22.8987 7.70569 22.9934 7.93747 23.0518 8.34229C23.168 9.14701 23.1416 10.6136 23.1413 13.1693H20.8234C20.8678 10.5553 20.9362 9.09401 21.1215 8.30481C21.2147 7.90785 21.3362 7.68304 21.4942 7.55528C21.6521 7.42752 21.8502 7.39038 22.1128 7.39038ZM67.4264 7.31543C67.1572 7.31543 66.9327 7.35197 66.7556 7.49532C66.5785 7.63866 66.4557 7.88462 66.3606 8.28982C66.1705 9.10022 66.1072 10.562 66.0625 13.2067L66.0551 13.2442H68.5294V13.2067C68.5294 10.6221 68.5592 9.15921 68.44 8.33479C68.3804 7.92258 68.2847 7.66455 68.1195 7.51031C67.9544 7.35606 67.7255 7.31543 67.4264 7.31543ZM67.4264 7.39038C67.7182 7.39038 67.9223 7.43482 68.0674 7.57027C68.2124 7.70571 68.3069 7.93741 68.3655 8.34229C68.4818 9.14713 68.4552 10.6131 68.4549 13.1693H66.137C66.1818 10.555 66.25 9.09417 66.4352 8.30481C66.5283 7.90777 66.6499 7.68306 66.8078 7.55528C66.9657 7.42749 67.1639 7.39038 67.4264 7.39038ZM38.5091 0.389756C38.2563 0.432176 38.0128 0.537151 37.7862 0.727046C37.2444 1.18078 37.0346 1.81662 37.2198 2.44347C37.402 3.05994 37.9601 3.66722 38.9265 4.09994C38.5626 4.52104 37.766 5.31818 37.1005 5.95878L37.0782 5.98126L37.1005 6.01124L37.8384 6.81324L37.8607 6.83573L37.8906 6.82074C39.3698 5.70487 40.2635 4.72386 40.663 3.83011C41.0626 2.93636 40.9617 2.12302 40.4693 1.35665C40.1984 0.933257 39.7591 0.589988 39.2693 0.442224C39.0245 0.36834 38.762 0.347337 38.5091 0.389756ZM38.5241 0.46471C38.7642 0.424551 39.0118 0.44622 39.247 0.517177C39.7173 0.659091 40.1415 0.994179 40.4022 1.40162C40.884 2.15135 40.9792 2.92624 40.5885 3.80012C40.2004 4.66818 39.3245 5.62823 37.8682 6.73079L37.1825 5.98126C37.8561 5.33176 38.6636 4.52031 39.0159 4.10743L39.0532 4.06996L39.0085 4.04747C38.026 3.6197 37.4712 3.01971 37.2943 2.42099C37.1174 1.82227 37.3084 1.22455 37.8309 0.787008C38.0475 0.605494 38.2839 0.504868 38.5241 0.46471ZM88.1008 0L88.0635 0.00749532L83.4278 0.359775L83.3905 0.36727V1.62648H84.0762C84.2646 1.62648 84.3897 1.6537 84.4637 1.73142C84.5377 1.80914 84.5755 1.94753 84.5755 2.18114V21.9088C84.5755 22.1299 84.5566 22.2645 84.501 22.336C84.4732 22.3718 84.4325 22.3944 84.3743 22.411C84.3161 22.4275 84.2374 22.4335 84.1358 22.4335H83.8004V23.6627H83.8451V23.7002H89.3454V22.4335H88.6001C88.413 22.4335 88.2951 22.3989 88.22 22.3136C88.1449 22.2282 88.1008 22.0827 88.1008 21.8488V0ZM88.0262 0.0824485V21.8488C88.0262 22.0906 88.0656 22.2583 88.1604 22.366C88.2551 22.4738 88.4032 22.5084 88.6001 22.5084H89.2709V23.6252H83.8824V22.5084H84.1358C84.241 22.5084 84.3274 22.5056 84.3967 22.4859C84.4659 22.4663 84.522 22.4307 84.5606 22.381C84.6379 22.2816 84.6501 22.1333 84.6501 21.9088V2.18114C84.6501 1.9396 84.6115 1.77938 84.5159 1.67895C84.4203 1.57852 84.2724 1.55153 84.0762 1.55153H83.465V0.442224L88.0262 0.0824485ZM47.6166 0.359775V1.62648H48.2724C48.4257 1.62648 48.5549 1.64009 48.6525 1.67146C48.7502 1.70282 48.8198 1.75411 48.8761 1.83635C48.9889 2.00084 49.0326 2.30074 49.0326 2.83323V21.8189C49.0326 22.0668 48.9935 22.2158 48.8836 22.3061C48.7737 22.3964 48.5796 22.4335 48.2724 22.4335H47.6166V23.7002H54.3987V22.4335H53.6833C53.5305 22.4335 53.408 22.4221 53.3106 22.3885C53.2132 22.355 53.136 22.3005 53.0796 22.2161C52.9667 22.0474 52.9231 21.7444 52.9231 21.2267V12.6446H57.3352V21.2267C57.3352 21.7441 57.2805 22.0469 57.1638 22.2161C57.1054 22.3007 57.0364 22.3549 56.9402 22.3885C56.8439 22.4221 56.7205 22.4335 56.575 22.4335H55.8595V23.7002H62.6118V22.4335H61.9783C61.8253 22.4335 61.7031 22.4221 61.6057 22.3885C61.5082 22.355 61.4385 22.3005 61.3821 22.2161C61.2693 22.0474 61.2256 21.7444 61.2256 21.2267V2.83323C61.2256 2.30072 61.2698 2.00082 61.3821 1.83635C61.4383 1.75412 61.5082 1.70281 61.6057 1.67146C61.7032 1.6401 61.825 1.62648 61.9783 1.62648H62.6118V0.359775H55.8595V1.62648H56.575C56.7208 1.62648 56.8439 1.6401 56.9402 1.67146C57.0365 1.70281 57.1056 1.75388 57.1638 1.83635C57.2801 2.0013 57.3352 2.30108 57.3352 2.83323V11.1755H52.9231V2.83323C52.9231 2.30073 52.9671 2.00084 53.0796 1.83635C53.1358 1.75411 53.2057 1.70281 53.3032 1.67146C53.4006 1.6401 53.5302 1.62648 53.6833 1.62648H54.3987V0.359775H47.6166ZM47.6911 0.442224H54.3242V1.55153H53.6833C53.5265 1.55153 53.3908 1.56112 53.2808 1.5965C53.1708 1.63188 53.0855 1.69553 53.0199 1.79138C52.8889 1.98307 52.8485 2.29648 52.8485 2.83323V11.2505H57.4097V2.83323C57.4097 2.29612 57.3657 1.98261 57.2308 1.79138C57.1634 1.69576 57.0712 1.63188 56.9625 1.5965C56.8539 1.56112 56.7246 1.55153 56.575 1.55153H55.934V0.442224H62.5373V1.55153H61.9783C61.8214 1.55153 61.6934 1.56112 61.5833 1.5965C61.4733 1.63188 61.3805 1.69553 61.315 1.79138C61.1841 1.98309 61.1436 2.29649 61.1436 2.83323V21.2267C61.1436 21.7488 61.1845 22.0659 61.315 22.2611C61.3803 22.3587 61.4732 22.4255 61.5833 22.4635C61.6935 22.5014 61.8211 22.5084 61.9783 22.5084H62.5373V23.6252H55.934V22.5084H56.575C56.7249 22.5084 56.8538 22.5014 56.9625 22.4635C57.0713 22.4255 57.1636 22.3585 57.2308 22.2611C57.3652 22.0663 57.4097 21.7492 57.4097 21.2267V12.5696H52.8485V21.2267C52.8485 21.7488 52.8893 22.0659 53.0199 22.2611C53.0853 22.3587 53.1707 22.4255 53.2808 22.4635C53.3909 22.5014 53.5262 22.5084 53.6833 22.5084H54.3242V23.6252H47.6911V22.5084H48.2724C48.5856 22.5084 48.7941 22.4763 48.9283 22.366C49.0625 22.2557 49.1146 22.0758 49.1146 21.8189V2.83323C49.1146 2.29647 49.0672 1.98307 48.9358 1.79138C48.8701 1.69554 48.7851 1.63188 48.6749 1.5965C48.5647 1.56113 48.4293 1.55153 48.2724 1.55153H47.6911V0.442224ZM0 0.359775V1.62648H0.51425C0.794551 1.62648 1.01915 1.79143 1.17756 2.09869C1.33597 2.40595 1.4235 2.85716 1.4235 3.40287V20.6346C1.4235 21.1651 1.33632 21.6198 1.17756 21.9388C1.0188 22.2577 0.793134 22.4335 0.51425 22.4335H0V23.7002H4.68788V22.4335H3.94259C3.63213 22.4335 3.40812 22.2573 3.25692 21.9388C3.10571 21.6203 3.03333 21.1658 3.03333 20.6346V6.11618L6.6778 23.6402L6.68525 23.6702H8.51867L8.52612 23.6402L12.1706 6.09369V20.9269C12.1706 21.4597 12.1274 21.8465 12.0141 22.0887C11.9007 22.3309 11.733 22.4335 11.4477 22.4335H10.5757V23.7002H17.2982V22.4335H16.7616C16.4762 22.4335 16.3008 22.3309 16.1877 22.0887C16.0746 21.8465 16.0312 21.4597 16.0312 20.9269V3.13304C16.0312 2.60053 16.0745 2.22088 16.1877 1.97876C16.3009 1.73665 16.4763 1.62648 16.7616 1.62648H17.2982V0.359775H11.6787L11.6712 0.389756L8.81678 14.8857L5.776 0.389756V0.359775H0ZM0.0819819 0.442224H5.71638L8.77952 15.0656V15.0806H8.85405V15.0656L11.7383 0.442224H17.2237V1.55153H16.7616C16.4561 1.55153 16.2434 1.67864 16.1206 1.94129C15.9979 2.20394 15.9567 2.5963 15.9567 3.13304V20.9269C15.9567 21.4639 15.9979 21.8559 16.1206 22.1187C16.2434 22.3814 16.4559 22.5084 16.7616 22.5084H17.2237V23.6252H10.6576V22.5084H11.4477C11.7533 22.5084 11.9582 22.3814 12.0812 22.1187C12.2041 21.8559 12.2526 21.4639 12.2526 20.9269V5.68894H12.2153L12.178 5.68145V5.68894H12.1706V5.71893L8.45904 23.5953H6.74488L3.03333 5.74891V5.74141L2.99607 5.74891H2.9588V20.6346C2.9588 21.1729 3.03071 21.6336 3.18984 21.9688C3.34898 22.3039 3.6022 22.5084 3.94259 22.5084H4.61335V23.6252H0.0819819V22.5084H0.51425C0.826113 22.5084 1.07803 22.3035 1.24463 21.9688C1.41124 21.6341 1.49803 21.1736 1.49803 20.6346V3.40287C1.49803 2.84887 1.41153 2.38494 1.24463 2.06121C1.07774 1.73749 0.824935 1.55153 0.51425 1.55153H0.0819819V0.442224ZM92.5278 1.55153L92.5203 1.57402C91.8408 3.63741 91.3481 4.79145 90.8881 5.41911C90.4282 6.04677 90.0126 6.15365 89.4572 6.15365H89.0622V7.51031H90.2472V20.065C90.2472 21.4775 90.3388 22.4597 90.7913 23.0931C91.2437 23.7264 92.0516 24 93.4445 24C94.351 24 95.1129 23.7984 95.6505 23.273C96.1882 22.7475 96.4927 21.9026 96.4927 20.6046V18.0412H95.1437V20.867C95.1437 21.385 95.1077 21.746 95.0021 21.9688C94.8965 22.1915 94.7298 22.2836 94.4432 22.2836C94.1565 22.2836 94.0047 22.1917 93.9066 21.9838C93.8084 21.7759 93.7724 21.4462 93.7724 20.9869V7.54029H96.4331V6.15365H93.8022V1.55153H92.5278ZM92.5874 1.62648H93.7277V6.22861H96.3586V7.46533H93.6979V20.9869C93.6979 21.4495 93.7309 21.7912 93.8395 22.0212C93.9481 22.2513 94.1388 22.3585 94.4432 22.3585C94.7475 22.3585 94.9532 22.2509 95.0692 22.0062C95.1852 21.7616 95.2257 21.3887 95.2257 20.867V18.1162H96.4182V20.6046C96.4182 21.8906 96.1169 22.7138 95.5984 23.2205C95.0799 23.7272 94.3402 23.9176 93.4445 23.9176C92.0613 23.9176 91.2844 23.6549 90.8509 23.0481C90.4174 22.4413 90.3217 21.474 90.3217 20.065V7.43535H89.1367V6.22861H89.4572C90.0233 6.22861 90.4771 6.10643 90.9478 5.46409C91.4157 4.8255 91.9132 3.66967 92.5874 1.62648ZM77.2717 5.86134C75.6971 5.86134 74.4646 6.41272 73.7688 7.24797C73.073 8.08322 72.9183 9.20259 73.5154 10.3136C73.7708 10.7816 74.1526 11.0836 74.5737 11.1905C74.9949 11.2974 75.457 11.2083 75.878 10.8907C76.3161 10.5565 76.5772 10.0355 76.4444 9.45909C76.3144 8.89483 75.8042 8.28671 74.7526 7.74266C74.9001 7.62635 75.1461 7.50599 75.4457 7.42036C75.7676 7.32837 76.1242 7.27046 76.4146 7.27046C76.8407 7.27046 77.1638 7.30905 77.3984 7.39038C77.6329 7.47171 77.7803 7.59444 77.8828 7.76515C78.088 8.10656 78.0915 8.65691 78.0915 9.45909C78.0915 9.69608 78.0915 12.0101 78.0915 12.4722C75.9838 13.1943 74.5467 13.7513 73.6421 14.7133C72.7324 15.6809 72.3602 17.0467 72.3602 19.3529C72.36 21.1405 72.7005 22.3027 73.2471 23.0181C73.7937 23.7335 74.5503 24 75.3563 24C76.2368 24 76.8942 23.6786 77.3909 23.2505C77.8635 22.8431 78.177 22.3426 78.412 21.9088C78.5558 22.5512 78.7246 23.074 79.0753 23.4304C79.4424 23.8033 80.0024 24 80.9087 24C81.9499 24 82.6046 23.676 82.9881 23.0481C83.3716 22.4202 83.4874 21.4954 83.4874 20.2748V20.2374H82.3471V20.2748C82.3471 21.1508 82.3333 21.6316 82.2726 21.8863C82.2422 22.0137 82.2029 22.0819 82.1533 22.1187C82.1038 22.1554 82.0375 22.1711 81.9447 22.1711C81.8585 22.1711 81.7986 22.1572 81.7583 22.1337C81.718 22.1101 81.6895 22.073 81.6689 21.9988C81.6276 21.8503 81.6242 21.5671 81.6242 21.0768V10.2611C81.6242 8.51639 81.1538 7.41161 80.3721 6.74578C79.5904 6.07996 78.5022 5.86134 77.2717 5.86134ZM77.2717 5.93629C78.4931 5.93629 79.5659 6.15713 80.3274 6.80575C81.0889 7.45436 81.5497 8.53012 81.5497 10.2611V21.0768C81.5497 21.5671 81.5468 21.8503 81.5944 22.0212C81.6181 22.1067 81.6614 22.1662 81.7211 22.2011C81.7807 22.236 81.8532 22.2461 81.9447 22.2461C82.0433 22.2461 82.1287 22.2301 82.1981 22.1786C82.2674 22.1272 82.3146 22.0451 82.3471 21.9088C82.4106 21.6424 82.421 21.1515 82.4216 20.3123H83.4129C83.4101 21.5068 83.2862 22.4127 82.921 23.0106C82.5515 23.6156 81.9347 23.9176 80.9087 23.9176C80.0132 23.9176 79.4768 23.7328 79.1275 23.3779C78.7781 23.023 78.6115 22.4927 78.4641 21.8114L78.4418 21.7064L78.3896 21.8039C78.1543 22.2476 77.8243 22.7795 77.3388 23.198C76.8532 23.6165 76.2187 23.9176 75.3563 23.9176C74.5667 23.9176 73.8384 23.669 73.3067 22.9731C72.7751 22.2773 72.442 21.1307 72.4422 19.3529C72.4422 17.0549 72.8094 15.7148 73.7017 14.7658C74.5941 13.8167 76.0174 13.2522 78.1437 12.5247L78.166 12.5172V12.4872C78.166 12.0416 78.166 9.69726 78.166 9.45909C78.166 8.65691 78.1732 8.09927 77.9499 7.72767C77.8383 7.54187 77.6681 7.4087 77.4207 7.32292C77.1734 7.23715 76.8453 7.1955 76.4146 7.1955C76.114 7.1955 75.7513 7.25169 75.4234 7.34541C75.0955 7.43913 74.8057 7.57101 74.6483 7.71268L74.611 7.75016L74.6557 7.77264C75.7424 8.31951 76.2442 8.92873 76.3699 9.47408C76.4955 10.0194 76.2528 10.5108 75.8333 10.8307C75.4279 11.1365 74.987 11.2167 74.5886 11.1156C74.1903 11.0144 73.8294 10.7286 73.5825 10.2761C72.9979 9.18857 73.1506 8.10666 73.8284 7.29294C74.5063 6.47922 75.7148 5.93629 77.2717 5.93629ZM67.4264 5.86134C65.9806 5.86134 64.6993 6.63498 63.7819 8.16989C62.8646 9.70481 62.3063 11.9934 62.3063 15.0431C62.3064 18.3891 62.8184 20.6261 63.7149 22.0287C64.6114 23.4313 65.8963 24 67.4264 24C68.8794 24 69.9871 23.6817 70.6833 22.7933C71.3795 21.9048 71.6588 20.4535 71.4808 18.1911V18.1537H70.1691V18.1986C70.2133 20.0979 70.0765 21.133 69.7666 21.6839C69.6116 21.9594 69.4151 22.111 69.1704 22.2011C68.9256 22.2913 68.6291 22.3136 68.2835 22.3136C67.7772 22.3136 67.397 22.2512 67.1059 22.0587C66.8148 21.8662 66.6094 21.5466 66.465 21.0244C66.1761 19.9799 66.137 18.1321 66.137 14.9831C66.137 14.8734 66.137 14.7011 66.137 14.4884H71.7789V14.451C71.7789 11.2698 71.476 9.12765 70.7802 7.77264C70.0844 6.41763 68.9863 5.86134 67.4264 5.86134ZM67.4264 5.93629C68.9684 5.93629 70.0283 6.47641 70.7131 7.81012C71.3951 9.13812 71.7018 11.2597 71.7044 14.4135H66.0625V14.451C66.0625 14.6879 66.0625 14.8651 66.0625 14.9831C66.0625 18.1327 66.0959 19.9743 66.3904 21.0394C66.5377 21.5719 66.7513 21.9138 67.0612 22.1187C67.3711 22.3236 67.7706 22.396 68.2835 22.396C68.6323 22.396 68.9334 22.3716 69.1927 22.2761C69.4521 22.1805 69.6711 22.0105 69.8337 21.7214C70.1556 21.1491 70.284 20.1039 70.2436 18.2361H71.4062C71.5769 20.4659 71.2969 21.8892 70.6237 22.7483C69.9464 23.6127 68.8685 23.9176 67.4264 23.9176C65.9148 23.9176 64.6582 23.3738 63.7745 21.9913C62.8908 20.6087 62.3809 18.3813 62.3808 15.0431C62.3808 12.0027 62.9345 9.72508 63.8416 8.20737C64.7487 6.68966 66.0075 5.93629 67.4264 5.93629ZM42.5188 5.86134C41.4915 5.86134 40.5118 6.18597 39.791 6.8807C39.0703 7.57543 38.606 8.63262 38.606 10.0812C38.606 11.4376 38.8348 12.3962 39.3141 13.2892C39.7934 14.1822 40.523 15.0087 41.5127 16.1374C42.3697 17.1181 43.0101 17.8266 43.4355 18.4834C43.8609 19.1403 44.069 19.7494 44.069 20.5447C44.069 21.18 43.9799 21.6643 43.7336 21.9913C43.4874 22.3182 43.0874 22.4934 42.4294 22.4934C41.8736 22.4934 41.4195 22.3684 41.058 21.9613C40.6966 21.5542 40.422 20.8608 40.2457 19.7352L40.0146 18.1911L40.0072 18.1537H38.6358V23.7002H39.7985L39.806 23.6702C39.8643 23.3918 39.9643 23.1186 40.0817 22.9432C40.1404 22.8554 40.2031 22.7924 40.2606 22.7633C40.3181 22.7341 40.3683 22.733 40.4245 22.7708C40.8174 23.223 41.7132 24 43.1672 24C44.4456 24 45.4464 23.5594 46.126 22.7933C46.8056 22.0271 47.162 20.9369 47.162 19.6227C47.162 18.2516 46.922 17.2625 46.439 16.3473C45.9561 15.432 45.2304 14.5909 44.2553 13.5066C43.3252 12.4815 42.6871 11.7793 42.2803 11.123C41.8735 10.4668 41.699 9.85793 41.699 9.01686C41.699 8.53062 41.7764 8.13812 41.9897 7.87008C42.2029 7.60204 42.5533 7.45034 43.1076 7.45034C43.6634 7.45034 44.0923 7.55981 44.4118 7.87758C44.7314 8.19534 44.9429 8.72932 45.0453 9.58651L45.254 11.2505L45.2615 11.2804H46.6328V6.15365H45.4925V6.19113C45.4633 6.50361 45.4466 6.7447 45.418 6.89569C45.4037 6.97119 45.3828 7.02561 45.3658 7.0456C45.3573 7.05559 45.3507 7.05958 45.3435 7.06059C45.3376 7.0614 45.3261 7.05813 45.3136 7.05309C45.313 7.05247 45.3069 7.05372 45.3062 7.05309C45.0388 6.81307 44.0081 5.86134 42.5188 5.86134ZM42.5188 5.93629C43.9796 5.93629 45.0031 6.87456 45.2689 7.11305L45.2764 7.12055C45.3032 7.13404 45.3313 7.13932 45.3584 7.13554C45.3855 7.13177 45.408 7.11866 45.4254 7.09806C45.4604 7.05687 45.4773 6.99115 45.4925 6.91068C45.5217 6.75645 45.5403 6.52143 45.567 6.22861H46.5508V11.2055H45.3211L45.1199 9.57152C45.0164 8.70562 44.8017 8.16094 44.464 7.82511C44.1263 7.48928 43.6734 7.37539 43.1076 7.37539C42.5393 7.37539 42.1599 7.53621 41.93 7.82511C41.7001 8.114 41.6245 8.52212 41.6245 9.01686C41.6245 9.86867 41.8004 10.4945 42.2132 11.1605C42.626 11.8265 43.2731 12.534 44.2032 13.559C45.1777 14.6427 45.8948 15.4804 46.372 16.3848C46.8491 17.2891 47.0874 18.2605 47.0874 19.6227C47.0874 20.923 46.7308 21.9992 46.0664 22.7483C45.402 23.4974 44.4285 23.9176 43.1672 23.9176C41.733 23.9176 40.8572 23.1588 40.4767 22.7183L40.4693 22.7108C40.393 22.6595 40.3068 22.6572 40.2308 22.6958C40.1547 22.7344 40.0851 22.804 40.0221 22.8982C39.9012 23.0789 39.8073 23.3516 39.7463 23.6252H38.7104V18.2361H39.9476L40.1711 19.7427C40.3485 20.8755 40.6212 21.5814 40.9984 22.0062C41.3756 22.4311 41.8616 22.5684 42.4294 22.5684C43.1009 22.5684 43.5378 22.3852 43.8007 22.0362C44.0636 21.6872 44.151 21.187 44.151 20.5447C44.151 19.7358 43.9335 19.1038 43.5026 18.4385C43.0717 17.7732 42.4288 17.0725 41.5723 16.0924C40.5827 14.9639 39.8546 14.1338 39.3811 13.2517C38.9077 12.3696 38.6806 11.4289 38.6806 10.0812C38.6806 8.64893 39.1386 7.61985 39.8432 6.94066C40.5479 6.26147 41.5077 5.93629 42.5188 5.93629ZM78.166 13.3791L78.1139 13.4091C77.0783 13.9897 76.4832 14.4214 76.1538 15.2005C75.8243 15.9796 75.7588 17.0913 75.7588 19.0531C75.7588 20.1677 75.7789 20.8866 75.9227 21.3317C75.9946 21.5542 76.1009 21.7124 76.2506 21.8114C76.4004 21.9103 76.5915 21.9463 76.832 21.9463C77.3891 21.9463 77.7342 21.7056 77.9275 21.3092C78.1208 20.9127 78.166 20.3689 78.166 19.7427V13.3791ZM78.0915 13.5141V19.7427C78.0915 20.3646 78.0438 20.9032 77.8605 21.2792C77.6771 21.6552 77.3679 21.8713 76.832 21.8713C76.5998 21.8713 76.4281 21.8316 76.2954 21.7439C76.1626 21.6562 76.0657 21.5212 75.9972 21.3092C75.8603 20.8852 75.8333 20.1667 75.8333 19.0531C75.8333 17.0931 75.9003 15.9886 76.2208 15.2305C76.5337 14.4905 77.1051 14.0717 78.0915 13.5141Z" fill="black"/>
</svg>
