<svg xmlns="http://www.w3.org/2000/svg" id="Group_108" width="34.841" height="41.311" data-name="Group 108" viewBox="0 0 34.841 41.311">
    <defs>
        <style>
            .cls-1{fill:#ffb83e}
        </style>
    </defs>
    <path id="Path_111" d="M72.378 177.565a2.549 2.549 0 0 0-2.472 1.94h-1.45v-7.156a7.657 7.657 0 0 0-.7-3.22.605.605 0 1 0-1.1.505 6.456 6.456 0 0 1 .591 2.714v7.156H47.761v-7.156a6.517 6.517 0 0 1 6.509-6.509h2.587a.605.605 0 1 0 0-1.21H54.27a7.725 7.725 0 0 0-1.526.152l-3.217-6.7h.817a1.945 1.945 0 0 0 .139-3.885l-6.14-.439a2.164 2.164 0 1 0-.154 4.323h1.126l4.008 8.35a7.706 7.706 0 0 0-2.772 5.92v7.156H45.1a2.545 2.545 0 1 0 0 1.21h24.806a2.545 2.545 0 1 0 2.472-3.151zm-29.145-21.65a.954.954 0 0 1 .952-.954h.07l6.14.439a.735.735 0 0 1-.052 1.467h-6.155a.955.955 0 0 1-.954-.952zm3.423 2.164h1.527l3.38 7.041a7.7 7.7 0 0 0-1.24.6zm-4.028 23.366a1.335 1.335 0 1 1 1.335-1.335 1.337 1.337 0 0 1-1.335 1.335zm29.75 0a1.335 1.335 0 1 1 1.335-1.335 1.337 1.337 0 0 1-1.335 1.335z" class="cls-1" data-name="Path 111" transform="translate(-40.083 -141.345)"/>
    <path id="Path_112" d="M160.37 26.8a5.143 5.143 0 1 0 .9.8l1.124-1.264a1.9 1.9 0 0 0 1.508.747h3.234a1.933 1.933 0 0 0 1.693-1.04 4.055 4.055 0 0 0 .307-.7l4.332-16.367a3.208 3.208 0 0 0 2.878-2.076l1.625-4.335a1.9 1.9 0 1 0-3.555-1.333l-1.478 3.942h-2.564a1.9 1.9 0 0 0-.786 3.626l-3.833 14.483h-1.848a1.9 1.9 0 0 0-1.882 1.65zm.99 4.2a3.928 3.928 0 1 1-1.8-3.3l-2.574 2.9a.605.605 0 0 0 .9.8l2.573-2.9a3.9 3.9 0 0 1 .901 2.5zm9.013-24.618h2.984a.605.605 0 0 0 .566-.393l1.626-4.335a.688.688 0 0 1 1.289.484l-1.625 4.335a1.991 1.991 0 0 1-1.856 1.286h-2.984a.688.688 0 0 1 0-1.377zm.421 2.587h1.424l-3.9 14.726a1.889 1.889 0 0 0-1.181-.414h-.134zM163.906 24.5h3.234a.688.688 0 0 1 0 1.377h-3.234a.688.688 0 0 1 0-1.377z" class="cls-1" data-name="Path 112" transform="translate(-143.252)"/>
</svg>
