<svg xmlns="http://www.w3.org/2000/svg" width="30.63" height="30.63" viewBox="0 0 30.63 30.63">
    <defs>
        <style>
            .cls-1{fill:#5874ea;stroke:#5874ea;stroke-width:.7px}
        </style>
    </defs>
    <g id="Group_19" data-name="Group 19" transform="translate(.35 .35)">
        <path id="Path_19" d="M140.8 125.437h-4.6a.849.849 0 0 1-.849-.849v-7.907h-.648a3.148 3.148 0 0 1 0-6.3h.648v-3.013a5.941 5.941 0 0 1 5.934-5.934h1.9a2.917 2.917 0 1 1 0 5.833h-.772a.768.768 0 0 0-.767.767v2.347h1.259a3.158 3.158 0 0 1 3.148 3.118 3.148 3.148 0 0 1-3.148 3.179h-1.258v7.907a.849.849 0 0 1-.847.852zm-3.749-1.7h2.9v-7.908a.849.849 0 0 1 .849-.849h2.107a1.45 1.45 0 0 0 1.45-1.464 1.455 1.455 0 0 0-1.45-1.436H140.8a.849.849 0 0 1-.849-.849v-3.2a2.468 2.468 0 0 1 2.465-2.465h.772a1.219 1.219 0 1 0 0-2.437h-1.9a4.241 4.241 0 0 0-4.236 4.236v3.862a.849.849 0 0 1-.849.849h-1.5a1.45 1.45 0 0 0 0 2.9h1.5a.849.849 0 0 1 .849.849v7.908z" class="cls-1" data-name="Path 19" transform="translate(-123.869 -95.507)"/>
        <path id="Path_20" d="M213.442 29.93h-2.208a.849.849 0 1 1 0-1.7h2.208a2.955 2.955 0 0 0 2.951-2.951V4.649a2.955 2.955 0 0 0-2.951-2.949h-12.749a.849.849 0 0 1 0-1.7h12.749a4.655 4.655 0 0 1 4.649 4.649V25.28a4.655 4.655 0 0 1-4.649 4.65z" class="cls-1" data-name="Path 20" transform="translate(-188.162)"/>
        <path id="Path_21" d="M16.934 29.93H4.649A4.655 4.655 0 0 1 0 25.28V4.649A4.655 4.655 0 0 1 4.649 0H6.56a.849.849 0 0 1 0 1.7H4.649A2.955 2.955 0 0 0 1.7 4.649V25.28a2.955 2.955 0 0 0 2.951 2.951h12.283a.849.849 0 0 1 0 1.7z" class="cls-1" data-name="Path 21"/>
    </g>
</svg>
