<svg xmlns="http://www.w3.org/2000/svg" width="60" height="19.751" viewBox="0 0 60 19.751">
    <defs>
        <style>
            .cls-1{fill:#fff}
        </style>
    </defs>
    <g id="Group_32" data-name="Group 32" transform="translate(-.36 -.47)">
        <path id="Path_38" d="M81.152 29.935A4.951 4.951 0 1 1 76.2 25a4.875 4.875 0 0 1 4.952 4.935zm-2.167 0a2.791 2.791 0 1 0-2.785 2.991 2.842 2.842 0 0 0 2.785-2.991z" class="cls-1" data-name="Path 38" transform="translate(-55.116 -19.072)"/>
        <path id="Path_39" d="M129.152 29.935A4.951 4.951 0 1 1 124.2 25a4.875 4.875 0 0 1 4.952 4.935zm-2.167 0a2.791 2.791 0 1 0-2.784 2.991 2.842 2.842 0 0 0 2.784-2.991z" class="cls-1" data-name="Path 39" transform="translate(-92.435 -19.072)"/>
        <path id="Path_40" d="M176.691 25.3v8.861c0 3.645-2.15 5.133-4.691 5.133a4.7 4.7 0 0 1-4.375-2.908l1.887-.785A2.726 2.726 0 0 0 172 37.35c1.627 0 2.635-1 2.635-2.893v-.71h-.076a3.36 3.36 0 0 1-2.6 1.121 4.939 4.939 0 0 1 0-9.869 3.42 3.42 0 0 1 2.6 1.1h.076v-.8h2.058zm-1.9 4.655a2.78 2.78 0 0 0-2.635-3.008 3 3 0 0 0 0 5.981 2.758 2.758 0 0 0 2.631-2.975z" class="cls-1" data-name="Path 40" transform="translate(-129.738 -19.072)"/>
        <path id="Path_41" d="M217.614 3v14.464H215.5V3z" class="cls-1" data-name="Path 41" transform="translate(-167.267 -1.967)"/>
        <path id="Path_42" d="M236.418 31.552l1.682 1.121a4.913 4.913 0 0 1-4.112 2.187 4.829 4.829 0 0 1-4.9-4.935 4.69 4.69 0 0 1 4.655-4.935 4.584 4.584 0 0 1 4.223 3.14l.225.561-6.6 2.733a2.512 2.512 0 0 0 2.392 1.5 2.817 2.817 0 0 0 2.43-1.366zm-5.178-1.776l4.41-1.831a1.911 1.911 0 0 0-1.831-1.046 2.707 2.707 0 0 0-2.579 2.877z" class="cls-1" data-name="Path 42" transform="translate(-177.833 -19.064)"/>
        <path id="Path_43" d="M8.133 9.58V7.486h7.056a6.938 6.938 0 0 1 .1 1.264 6.915 6.915 0 0 1-1.814 4.9 7.008 7.008 0 0 1-5.34 2.15A7.771 7.771 0 0 1 .36 8.134 7.771 7.771 0 0 1 8.135.47a7.3 7.3 0 0 1 5.251 2.112l-1.477 1.477a5.337 5.337 0 0 0-3.776-1.5 5.5 5.5 0 0 0-5.5 5.57 5.5 5.5 0 0 0 5.5 5.57A5.127 5.127 0 0 0 12 12.17a4.34 4.34 0 0 0 1.135-2.592z" class="cls-1" data-name="Path 43"/>
    </g>
</svg>
