<svg xmlns="http://www.w3.org/2000/svg" width="52.561" height="23.767" viewBox="0 0 52.561 23.767">
    <defs>
        <style>
            .cls-1{fill:#fff}
        </style>
    </defs>
    <g id="Group_28" data-name="Group 28" transform="translate(-375.791 167.242)">
        <g id="g1382" transform="translate(412.752 -157.751)">
            <path id="path1384" d="M573.358-116.249a7.334 7.334 0 0 0-.358 3.324 2.619 2.619 0 0 0 .2.857.721.721 0 0 0 .611.413 20.242 20.242 0 0 0 3.338-1.008l1.371-.438a.827.827 0 0 0 .592-.8.883.883 0 0 0-.538-.9l-.965-.393c-3.3-1.362-3.451-1.415-3.617-1.417a.715.715 0 0 0-.639.365" class="cls-1" transform="translate(-572.96 116.614)"/>
        </g>
        <g id="g1386" transform="translate(415.833 -153.048)">
            <path id="path1388" d="M594.1-85.713a21.8 21.8 0 0 0 .069-3.49l.008-1.44a.829.829 0 0 0-.574-.811.888.888 0 0 0-1.023.231s-.674.8-.676.8a23.585 23.585 0 0 0-2.467 3 .66.66 0 0 0-.037.3.793.793 0 0 0 .188.419 7.213 7.213 0 0 0 3.931 1.443.719.719 0 0 0 .581-.453" class="cls-1" transform="translate(-589.399 91.524)"/>
        </g>
        <g id="g1390" transform="translate(422.256 -153.995)">
            <path id="path1392" d="M627.163-90.941a7.133 7.133 0 0 0 2.587-3.29.723.723 0 0 0-.247-.7 22.3 22.3 0 0 0-3.3-1.144s-1.347-.445-1.365-.453a.834.834 0 0 0-.948.3.882.882 0 0 0-.091 1.051l.542.883a25.81 25.81 0 0 0 2.094 3.273.709.709 0 0 0 .73.078" class="cls-1" transform="translate(-623.664 96.574)"/>
        </g>
        <g id="g1394" transform="translate(422.031 -161.2)">
            <path id="path1396" d="M624.6-129.795a24.718 24.718 0 0 0 3.763-.981.715.715 0 0 0 .3-.671.153.153 0 0 0 0-.029 7.23 7.23 0 0 0-2.331-3.448.724.724 0 0 0-.742.029 21.807 21.807 0 0 0-2.1 2.777s-.844 1.15-.854 1.161a.824.824 0 0 0-.008.991.88.88 0 0 0 .955.416s-.014.025-.018.029c.172-.064.479-.14 1.039-.273" class="cls-1" transform="translate(-622.461 135.011)"/>
        </g>
        <g id="g1398" transform="translate(414.412 -167.242)">
            <path id="path1400" d="M588.07-158.866c-.06-1.383-.477-7.543-.525-7.828a.733.733 0 0 0-.562-.516 9.77 9.77 0 0 0-4.927 1.384.745.745 0 0 0-.217.7c.1.2 4.319 6.843 4.319 6.843.623 1.011 1.132.854 1.3.8s.671-.208.614-1.387" class="cls-1" transform="translate(-581.817 167.242)"/>
        </g>
        <g id="g1402" transform="translate(375.791 -156.95)">
            <path id="path1404" d="M377.447-99.653a2.656 2.656 0 0 0 2.285.317c.948-.187 1.537-.611 2.1-2.411l2.819-8.858a1.512 1.512 0 0 0-.032-1.181 1.041 1.041 0 0 0-.682-.494c-.5-.138-1.129-.124-1.525 1.226l-1.479 5.024s-3.013-5.692-3.015-5.693a1.045 1.045 0 0 0-1.316-.427 1.278 1.278 0 0 0-.692 1.805s3.665 7.459 3.673 7.479a2.62 2.62 0 0 1 .1.309s.033.2.033.21a.96.96 0 0 1-.275.691.912.912 0 0 1-.678.231l-.615-.013a1.047 1.047 0 0 0-1.016.93.958.958 0 0 0 .311.855" class="cls-1" transform="translate(-375.791 112.337)"/>
        </g>
        <g id="g1406" transform="translate(386.095 -156.952)">
            <path id="path1408" d="M436.552-108.061h-3.925c-.106-.078-.158-.208-.079-.6a2.044 2.044 0 0 1 .26-.649c.051-.077.1-.157.154-.236a1.975 1.975 0 0 1 1.118-.7 1.846 1.846 0 0 1 2.5 1.56c.075.522.026.625-.028.625zm2.412-.683a3.972 3.972 0 0 0-1.43-2.891 4.434 4.434 0 0 0-3.528-.6c-1.812.314-2.9 1.609-3.149 3.749-.307 2.559.115 4.487 1.222 5.577a4.1 4.1 0 0 0 3.571.949c2.142-.3 3.1-1.476 3.1-2.22a.987.987 0 0 0-.816-1.042c-.278-.055-.512 0-1.032.464a2.673 2.673 0 0 1-2.383.719 1.779 1.779 0 0 1-1.249-1.105s-.092-.366-.087-.325c-.063-.33-.091-.656.112-.789l.055-.037h4.7c.434 0 .654-.056.78-.193.258-.287.238-1.107.127-2.251" class="cls-1" transform="translate(-430.759 112.349)"/>
        </g>
        <g id="g1410" transform="translate(396.901 -160.207)">
            <path id="path1412" d="M490.068-129.624a1.294 1.294 0 0 0-1.161.109 1.114 1.114 0 0 0-.5 1.106v11.216s.062.4.068.418a1.027 1.027 0 0 0 .573.648 1.193 1.193 0 0 0 1.015-.009 1.133 1.133 0 0 0 .65-1.093v-11.237s-.071-.543-.071-.553a.931.931 0 0 0-.572-.6" class="cls-1" transform="translate(-488.405 129.714)"/>
        </g>
        <g id="g1414" transform="translate(402.132 -157.092)">
            <path id="path1416" d="M521.616-104.728c-1.553 0-1.8-1.379-1.85-2.419l-.02-.609.018-.468c.1-1.8.473-2.511 1.423-2.708a1.662 1.662 0 0 1 1.491.219c.549.442.791 1.379.769 2.941-.016 1.828-.334 3.044-1.831 3.044zm.115-8.235a3.459 3.459 0 0 0-2.787.546s-.1.077-.133.1l-.077.039-.235.105-.067-.263-.056-.1-.02-.059-.006-.018-.066-.089a1.148 1.148 0 0 0-1.515-.214c-.295.167-.464.4-.464 1.105v11.011a1.147 1.147 0 0 0 .6 1.176 1.275 1.275 0 0 0 1.079.044 1 1 0 0 0 .575-.617l.069-.472v-1.905l-.02-.306.008-.091.012-.043.114-.363.345.229a.961.961 0 0 1 .124.1l.1.068.12.07.111.053a3.69 3.69 0 0 0 3.154-.127c1.252-.654 1.871-1.813 2.014-3.761.3-3.892-.6-5.752-2.985-6.217" class="cls-1" transform="translate(-516.307 113.095)"/>
        </g>
    </g>
</svg>
