<svg width="108" height="34" viewBox="0 0 108 34" fill="none" xmlns="http://www.w3.org/2000/svg">
<path opacity="0.2" fill-rule="evenodd" clip-rule="evenodd" d="M8.37157 34H10.8839V20.4H8.37157V34ZM17.5809 33.796H19.8311V25.2153L29.3026 34V20.604H27.0587V29.0381L17.5809 20.4V33.796ZM34.4394 30.5022C35.6641 31.4691 37.1342 32.028 38.7101 32.028C40.2452 32.028 41.3221 31.4925 41.3221 30.3099C41.3221 29.2793 40.6353 28.8756 39.4326 28.424L37.4854 27.7387C35.6903 27.0927 34.3251 26.1492 34.3251 23.9806C34.3251 21.6612 36.3918 20.4 38.8632 20.4C40.3773 20.4 41.7572 20.7857 42.8351 21.4689V23.7692C41.7142 22.9298 40.4874 22.3518 38.9115 22.3518C37.5546 22.3518 36.5407 22.865 36.5407 23.9349C36.5407 24.9018 37.1772 25.2886 38.2981 25.6774L40.4675 26.4488C42.5698 27.1979 43.5345 28.3592 43.5345 30.2696C43.5345 32.6729 41.4479 34 38.7101 34C36.9108 34 35.381 33.49 34.4394 32.8461V30.5022ZM49.3958 34H51.9071V20.4H49.3958V34ZM63.6885 31.9419C66.5196 31.9419 68.0327 30.1017 68.0327 27.1968C68.0327 24.2707 66.5186 22.4368 63.6885 22.4368H60.8889V31.9419H63.6885ZM58.6031 20.4H63.7724C67.7516 20.4 70.3248 23.0562 70.3248 27.1968C70.3248 31.3406 67.7516 34 63.7724 34H58.6031V20.4ZM82.8842 20.4V22.4368H76.8058V25.7093H82.2572V27.7227H76.8048V31.9419H82.8842V34H74.5116V20.4H82.8842ZM91.799 26.5583H94.2913C95.7666 26.5583 96.5981 25.738 96.5981 24.4768C96.5981 23.2156 95.7666 22.3943 94.2913 22.3943H91.799V26.5593V26.5583ZM91.799 28.4814V34H89.5813V20.4H94.3333C97.0427 20.4 98.7959 21.8142 98.7959 24.4768C98.7959 26.7537 97.8228 28.0617 95.7499 28.3974L100.465 34H97.9424L93.377 28.4824H91.8L91.799 28.4814ZM7.49394 7.00187C8.47643 6.63744 9.24186 5.54413 9.24186 4.04069C9.24186 1.53531 7.49394 0.236937 4.69748 0.236937H0V14.2226H5.13367C7.93014 14.2226 9.67806 12.8329 9.67806 10.2138C9.67806 8.73269 8.76058 7.43431 7.49394 7.00187ZM2.20614 6.11363V2.28756H4.6765C6.22835 2.28756 7.05775 2.85706 7.05775 4.17775C7.05775 5.49844 6.2273 6.11363 4.6765 6.11363H2.20614ZM2.20614 8.07288H5.08963C6.6205 8.07288 7.4499 8.84638 7.4499 10.1224C7.4499 11.3751 6.61946 12.1731 5.09068 12.1731H2.20718V8.07181L2.20614 8.07288ZM19.9276 14.45C23.1393 14.45 25.3024 12.4907 25.3024 8.66469V0.236937H23.0302V8.39056C23.0302 11.0787 21.9376 12.3324 19.9276 12.3324C17.9175 12.3324 16.826 11.0787 16.826 8.39056V0.236937H14.5538V8.64131C14.5538 12.4908 16.7379 14.45 19.9276 14.45ZM30.6521 13.2196C31.5916 13.9039 33.1214 14.45 34.9123 14.45C37.6438 14.45 39.7188 13.0369 39.7188 10.4869C39.7188 8.45963 38.7584 7.22925 36.6602 6.43237L34.4981 5.61212C33.3835 5.20306 32.7502 4.79294 32.7502 3.76763C32.7502 2.62863 33.7547 2.0825 35.1094 2.0825C36.6823 2.0825 37.9059 2.69663 39.0205 3.58594V1.1475C37.9499 0.419688 36.5732 0.0095625 35.0654 0.0095625C32.5971 0.0095625 30.543 1.35363 30.543 3.81331C30.543 6.11363 31.8977 7.11556 33.6887 7.79875L35.6337 8.52763C36.8353 9.00575 37.5127 9.43925 37.5127 10.5326C37.5127 11.7853 36.4421 12.3548 34.9123 12.3548C33.3395 12.3548 31.8757 11.7619 30.6521 10.7376V13.2196ZM47.8377 0.236937H45.5666V14.2216H47.8377V0.236937ZM54.3198 14.2046H56.5092V5.10638L65.7238 14.4213V0.215687H63.5407V9.15875L54.3198 0V14.2046ZM79.9221 0.240125V2.33431H74.023V5.70031H79.3129V7.77112H74.023V12.1093H79.9221V14.2258H71.7959V0.240125H79.9221ZM85.212 13.2101C86.1515 13.8943 87.6803 14.4404 89.4722 14.4404C92.2026 14.4404 94.2788 13.0284 94.2788 10.4773C94.2788 8.45006 93.3172 7.22075 91.2202 6.42281L89.057 5.60363C87.9424 5.1935 87.3091 4.78337 87.3091 3.75806C87.3091 2.61906 88.3136 2.07294 89.6683 2.07294C91.2411 2.07294 92.4648 2.68812 93.5794 3.57637V1.139C92.5088 0.410125 91.1321 0 89.6243 0C87.156 0 85.1019 1.34406 85.1019 3.80375C85.1019 6.10406 86.4566 7.106 88.2475 7.78919L90.1926 8.51806C91.3942 8.99619 92.0716 9.42969 92.0716 10.523C92.0716 11.7757 91.0021 12.3452 89.4712 12.3452C87.8984 12.3452 86.4346 11.7534 85.212 10.7281V13.2101ZM98.9332 13.2101C99.8727 13.8943 101.403 14.4404 103.193 14.4404C105.925 14.4404 108 13.0284 108 10.4773C108 8.45006 107.038 7.22075 104.941 6.42281L102.778 5.60363C101.665 5.1935 101.03 4.78337 101.03 3.75806C101.03 2.61906 102.036 2.07294 103.39 2.07294C104.962 2.07294 106.187 2.68812 107.301 3.57637V1.139C106.231 0.410125 104.854 0 103.347 0C100.877 0 98.8242 1.34406 98.8242 3.80375C98.8242 6.10406 100.179 7.106 101.97 7.78919L103.915 8.51806C105.116 8.99619 105.794 9.42969 105.794 10.523C105.794 11.7757 104.723 12.3452 103.193 12.3452C101.621 12.3452 100.157 11.7534 98.9332 10.7281V13.2101Z" fill="black"/>
</svg>
