<svg width="135" height="26" viewBox="0 0 135 26" fill="none" xmlns="http://www.w3.org/2000/svg">
<path fill-rule="evenodd" clip-rule="evenodd" d="M12.0827 0L11.7679 4.66043H9.45636L9.24493 1.76112H5.56857V8.69909H7.14483C7.26228 8.18152 7.35625 7.66395 7.56532 7.14523H9.24493V11.9087H7.67103L7.25054 10.3548H5.67428V17.7073H9.35065L9.66543 14.4965L12.186 14.6123L12.3974 19.48H0.31713V17.8243L1.99675 17.514V1.96722L0 1.65692V0.00115944H12.0803L12.0827 0ZM54.7191 25.9919C54.7191 25.4743 54.8365 25.0598 54.8365 24.6453L56.0968 24.335V7.77742C55.5718 7.66164 55.1513 7.66164 54.6263 7.56901V6.2224L58.6198 5.70483C58.7372 6.2224 58.9345 6.73997 59.0403 7.15449C59.1577 7.15449 59.1577 7.0387 59.2517 7.0387C60.1972 5.89935 61.4575 5.58905 62.928 5.6921C64.7134 5.90051 65.7646 7.0387 66.1851 8.5914C66.3965 9.31623 66.6056 10.0411 66.6056 10.7659C66.723 12.3198 66.723 13.8725 66.4881 15.3221C66.3707 15.8397 66.1733 16.4615 65.9631 16.9779C65.2278 18.5317 63.9663 19.4627 62.2867 19.5669C61.3412 19.6827 60.5014 19.5669 59.6604 19.1524H59.449V24.3431L60.815 24.6534C60.815 25.0679 60.6976 25.4813 60.6976 26H54.7097L54.7191 25.9919ZM59.4467 17.397C60.4967 17.8115 61.5609 17.9146 62.598 17.5128C62.7857 17.4312 62.9357 17.2833 63.0185 17.0983C63.1359 16.5807 63.3333 16.0632 63.3333 15.5444C63.5447 13.9906 63.5447 12.3336 63.4507 10.7809C63.4482 10.2144 63.3415 9.65305 63.1359 9.12403C62.8212 7.98468 61.9802 7.57016 60.8244 7.77742H60.613C59.8777 7.89321 59.4572 8.3992 59.4572 9.12403V17.3959L59.4467 17.397ZM99.3663 17.7096L100.732 18.02C100.732 18.5375 100.732 18.952 100.615 19.4696H95.993V10.1487C95.993 9.73423 95.8755 9.32087 95.7816 8.90635C95.6641 8.38878 95.2565 8.18152 94.7315 8.07847C94.2065 7.97542 93.786 7.96268 93.3655 8.19426C92.945 8.42583 92.6302 8.60878 92.6302 9.12634V17.7212L93.9962 18.0315C93.9962 18.446 93.8788 18.9636 93.8788 19.4812H87.9966V18.0338L89.3626 17.7235V7.88511C88.8376 7.76932 88.4171 7.76932 87.8921 7.67669V6.21082L91.7681 5.69326L92.0829 6.93565C92.3977 6.72723 92.7136 6.41808 93.0284 6.21082C94.2887 5.38294 95.7592 5.27874 97.1252 5.7963C98.281 6.21082 98.9106 7.14291 99.122 8.3853C99.2395 8.69561 99.2395 9.11013 99.2395 9.42044V17.1874C99.3159 17.3492 99.3521 17.5267 99.3452 17.705L99.3663 17.7096ZM18.0588 17.8254L19.4248 18.1357C19.4248 18.6533 19.3074 19.0678 19.3074 19.5854H13.3195C13.3195 19.1709 13.3195 18.6533 13.4369 18.1357L14.6972 17.8254C14.8147 17.5151 14.8147 8.50457 14.6972 7.987C14.2767 7.87121 13.7517 7.87121 13.2267 7.77858V6.31503L17.1027 5.79746L17.4175 7.03986L17.7323 6.72955C18.9926 5.69441 20.4631 5.38295 22.0394 5.79746C23.4054 6.10777 24.1536 7.03986 24.4554 8.38646C24.5729 8.69677 24.5729 9.11129 24.5729 9.4216V17.7062L25.9389 18.0165V19.48H21.317V10.4718C21.317 10.1615 21.317 9.74696 21.1996 9.43665C21.0821 8.60878 20.5688 8.19426 19.8336 8.09005C19.2028 7.97426 18.6778 8.09005 18.2573 8.60762C18.0459 8.81603 18.0459 9.02214 18.0459 9.33245V17.8243L18.0588 17.8254ZM120.598 7.55974C120.073 7.55974 119.652 7.44396 119.127 7.44396V6.20156L123.644 5.68399C123.856 6.20156 124.065 6.71913 124.065 7.33975V17.7988L125.431 18.1091C125.431 18.6267 125.313 19.0412 125.313 19.5588H121.437C121.32 19.2485 121.226 18.8339 121.123 18.4194C121.005 18.5352 120.911 18.6278 120.808 18.6278C119.232 20.0775 117.131 19.8702 115.765 19.2496C114.715 18.732 114.189 17.903 113.98 16.7648C113.863 16.3503 113.863 16.04 113.863 15.6255V7.65122C113.338 7.53543 112.813 7.53543 112.392 7.4428V6.21082L116.804 5.69326C116.921 6.21082 117.119 6.62534 117.119 7.14291V15.013C117.119 15.3233 117.119 15.7378 117.236 16.0481C117.353 16.9802 117.971 17.602 118.916 17.602C119.23 17.602 119.651 17.4862 119.966 17.4862C120.28 17.3704 120.805 16.7613 120.805 16.451V7.855C120.594 7.73921 120.594 7.64658 120.594 7.54469L120.598 7.55974ZM47.2853 13.4614C47.2853 14.6008 47.4967 15.5456 48.0206 16.4649C48.5456 17.1898 49.2809 17.6043 50.2264 17.7073C51.1719 17.7073 52.0117 17.4989 52.8527 17.1898C52.9702 17.1898 53.0641 17.074 53.2732 17.074C53.4846 17.4885 53.588 17.9019 53.7982 18.3164C53.5868 18.5248 53.2732 18.6267 53.0629 18.8339C51.3833 19.766 49.598 20.0763 47.8103 19.4557C46.2341 19.0412 45.2897 18.0061 44.5533 16.5564C43.818 15.0025 43.6078 13.3456 43.818 11.6887C43.9355 10.6536 44.1328 9.60454 44.5533 8.68519C45.2886 7.13133 46.4326 6.09619 48.1239 5.78588C49.8153 5.47558 51.2753 5.6701 52.5356 6.82102C53.2708 7.54585 53.6913 8.47678 54.0061 9.41002C54.3209 10.4452 54.4266 11.3784 54.4266 12.4135C54.4266 12.7238 54.2152 13.0353 54.1118 13.4487H47.2841L47.2853 13.4614ZM51.3821 11.7014C51.3821 11.2869 51.2647 10.9766 51.2647 10.6663C51.1472 9.83844 51.0533 9.11245 50.634 8.38762C50.2135 7.55974 49.4782 7.35248 48.6372 7.66279C48.3224 7.77858 48.1122 7.9731 47.9019 8.28457C47.4815 9.42392 47.2712 10.5633 47.1667 11.7003V12.0106L51.3681 11.7003L51.3821 11.7014ZM111.578 13.4614L104.75 13.5772C104.633 14.0948 104.75 14.5093 104.868 14.9238C104.976 15.604 105.266 16.2436 105.708 16.7764C106.233 17.3982 106.864 17.7085 107.704 17.7085C108.545 17.7085 109.384 17.5927 110.225 17.294C110.436 17.1782 110.54 17.1782 110.75 17.0856C110.962 17.5001 111.065 17.9134 111.275 18.3279C111.158 18.3279 111.158 18.4437 111.064 18.4437C109.593 19.4789 108.017 19.7903 106.232 19.6861C104.117 19.4777 102.661 18.2365 101.924 16.2704C100.874 13.7856 100.979 11.2997 102.042 8.81372C102.673 7.25986 103.827 6.12167 105.613 5.8102C106.979 5.49989 108.343 5.60178 109.489 6.43198C110.328 7.05375 110.855 7.88163 111.274 8.71067C111.694 9.85001 111.905 11.1955 111.905 12.439C111.905 12.7493 111.693 13.0608 111.59 13.4741L111.578 13.4614ZM108.952 11.7014C108.952 10.7694 108.834 9.94148 108.531 9.11245C108.414 8.69793 108.217 8.28457 107.901 7.9731C107.376 7.24828 105.695 7.45554 105.485 8.38762C105.273 9.11245 105.064 9.83728 104.96 10.6663C104.842 11.0808 104.842 11.4942 104.842 12.0129L108.939 11.7026L108.952 11.7014ZM87.4152 13.4614L80.5875 13.5772C80.5875 14.8196 80.7989 15.8559 81.533 16.788C82.058 17.4098 82.6888 17.7201 83.4123 17.7201C84.2521 17.7201 85.1976 17.6043 85.9329 17.3055C86.1443 17.1898 86.2477 17.1898 86.4579 17.0971C86.6693 17.5116 86.7727 17.925 86.983 18.3395C86.7715 18.4553 86.6682 18.5479 86.5625 18.6498C85.0581 19.5687 83.26 19.901 81.5201 19.5819C79.8405 19.2716 78.6835 18.2353 77.9494 16.7857C77.2142 15.2318 77.0039 13.6791 77.1096 12.0222C77.2271 10.8828 77.4244 9.8477 77.8449 8.8114C78.3699 7.56901 79.2109 6.63692 80.4712 6.11935C81.9418 5.49758 83.4123 5.49757 84.8829 6.23514C85.8284 6.75271 86.4591 7.58174 86.8796 8.51383C87.4046 9.75622 87.6149 11.1028 87.6149 12.4506C87.7323 12.7609 87.4974 13.0724 87.4034 13.4857L87.4152 13.4614ZM84.7889 11.7014C84.7889 11.2869 84.6714 10.8736 84.6714 10.4591C84.554 9.73423 84.46 9.0094 84.0407 8.37489C83.5157 7.54701 82.7804 7.23554 81.9265 7.65006C81.7151 7.76584 81.506 7.85847 81.4015 8.16763C80.981 8.9955 80.7707 9.92759 80.6662 10.8597C80.6662 11.17 80.5487 11.4815 80.5487 11.8948C81.9147 11.8948 83.2796 11.779 84.7501 11.6864L84.7889 11.7014ZM38.3434 5.79862L38.6582 7.04102C38.8696 6.92523 38.973 6.8326 39.1832 6.73071C40.1287 6.21314 41.18 5.90283 42.23 5.79862C42.755 5.68283 43.1755 5.91441 43.4903 6.31619L43.0698 9.94033C42.3345 9.94033 41.5993 9.82454 40.864 9.82454C40.7465 9.20276 40.6526 8.58214 40.6526 7.85616C40.1275 7.85616 39.7071 8.06457 39.2866 8.37373V17.6946L40.6526 18.0049C40.6526 18.4194 40.6526 18.937 40.5351 19.3515H34.667V18.0049L35.9273 17.6946V7.86658C35.4023 7.75079 34.9818 7.75079 34.4568 7.65816V6.21082C35.7171 6.21082 36.9774 6.00241 38.3328 5.7963L38.3434 5.79862ZM126.059 19.48C126.059 18.9625 126.059 18.5479 126.177 18.1334L127.437 17.8231V7.98468C127.017 7.8689 126.492 7.8689 125.966 7.77627V6.31503L129.96 5.79746L130.275 6.93681L131.954 6.21198C132.585 6.00356 133.11 5.90167 133.74 5.79746C134.265 5.68168 134.685 5.79746 135 6.31503L134.58 9.93917C133.844 9.93917 133.109 9.82338 132.374 9.82338C132.256 9.2016 132.162 8.47678 132.162 7.855L130.796 8.37257V17.7976L132.162 18.108C132.162 18.5225 132.045 19.04 132.045 19.4546H126.057L126.059 19.48ZM73.8385 7.87005L72.4725 8.38762V17.8127L73.8385 18.123C73.8385 18.6406 73.721 19.0551 73.721 19.4696H67.8389V18.123L69.0992 17.8127V7.97426C68.5741 7.85847 68.1536 7.85847 67.6286 7.76584V6.31503L71.6221 5.79746L71.9369 6.93681L73.0927 6.31503C73.8279 6.00472 74.5632 5.79746 75.4042 5.69326C76.0349 5.69326 76.4542 5.90167 76.7702 6.31503L76.3497 9.93917C75.6144 9.93917 74.8792 9.82338 74.1439 9.82338L73.8291 7.855L73.8385 7.87005ZM30.7699 3.20962V6.00588H33.1988C33.0814 6.62766 33.0814 7.14523 33.0814 7.76584C32.3461 7.76584 31.6108 7.88163 30.8756 7.97426V16.7764C30.993 17.294 31.2961 17.7085 31.9256 17.7085H33.2916C33.2916 18.2261 33.4091 18.6406 33.4091 19.1581C33.0943 19.3666 32.6738 19.4685 32.2533 19.5727C31.4135 19.7811 30.5737 19.7811 29.7327 19.6884C28.4724 19.48 27.6185 18.6533 27.4212 17.3067V7.98584C26.8962 7.87005 26.3711 7.77742 25.8449 7.77742C25.8449 7.25985 25.8449 6.63808 25.9624 6.12167C26.5931 6.12167 27.1182 6.00588 27.7477 6.00588L28.483 3.41688L30.7945 3.20846L30.7699 3.20962Z" fill="black"/>
</svg>
