<svg width="66" height="66" viewBox="0 0 66 66" fill="none" xmlns="http://www.w3.org/2000/svg">
<path d="M25.9305 36.0164L33.4902 33.0799L35.5901 33.4002M25.9305 36.0164L23.1218 24.3502M25.9305 36.0164L22.4394 41.0086M25.9305 36.0164C26.6917 36.1321 28.2404 36.3635 28.3454 36.3635L33.4377 37.1377C33.5771 37.5507 33.7253 37.724 34.0677 37.9653L34.473 38.0714M38.0276 34.6503L37.69 33.7206L35.5901 33.4002M38.0276 34.6503C36.3781 35.1562 35.0577 36.4343 34.473 38.0714M38.0276 34.6503C38.5274 34.497 39.0573 34.4147 39.6062 34.4147C42.6216 34.4147 45.066 36.9008 45.066 39.9675C45.066 42.2388 43.7251 44.1916 41.8045 45.0518M41.8045 45.0518L42.3624 46.5881L43.1285 48M41.8045 45.0518C41.132 45.3531 40.3883 45.5203 39.6062 45.5203C37.6402 45.5203 35.9169 44.4635 34.9556 42.8779M42.0736 24.724L44.856 22.4815M42.0736 24.724L38.635 25.0977L39.3437 29.2356L35.5901 33.4002M42.0736 24.724L43.0703 26.6026M50 16L47.1126 23.666L44.9077 26.2021L43.0703 26.6026M43.0703 26.6026L41.4691 26.8962M23.1218 24.3502H21.4157M23.1218 24.3502H26.6655M28.1879 40.3145H30.8013M34.9556 42.8779L40.8889 42.5303L39.5334 38.7972L34.473 38.0714M34.9556 42.8779L27.7154 43.438L23.8568 41.8362L22.4394 41.0086M22.4394 41.0086L18.9482 46.0008L18 48M15 1H51C58.732 1 65 7.26801 65 15V51C65 58.732 58.732 65 51 65H15C7.26801 65 1 58.732 1 51V15C1 7.26801 7.26801 1 15 1Z" stroke="#FCB333" stroke-width="2" stroke-linecap="round" stroke-linejoin="round"/>
</svg>
