<svg width="20" height="20" viewBox="0 0 20 20" fill="none" xmlns="http://www.w3.org/2000/svg">
<path d="M3.63604 16.364C2.83954 15.5675 3.36783 13.8952 2.96241 12.9154C2.54215 11.8997 1 11.0822 1 9.99997C1 8.91779 2.54216 8.10031 2.96242 7.08459C3.36783 6.10475 2.83954 4.43254 3.63604 3.63604C4.43254 2.83954 6.10476 3.36783 7.0846 2.96241C8.10034 2.54215 8.91784 1 10 1C11.0822 1 11.8997 2.54216 12.9154 2.96242C13.8952 3.36783 15.5675 2.83954 16.364 3.63604C17.1605 4.43254 16.6322 6.10476 17.0376 7.0846C17.4579 8.10034 19 8.91784 19 10C19 11.0822 17.4578 11.8997 17.0376 12.9154C16.6322 13.8952 17.1605 15.5675 16.364 16.364C15.5675 17.1605 13.8952 16.6322 12.9154 17.0376C11.8997 17.4579 11.0822 19 9.99997 19C8.91779 19 8.10031 17.4578 7.08459 17.0376C6.10475 16.6322 4.43254 17.1605 3.63604 16.364Z" fill="#FCB333" fill-opacity="0.15"/>
<path d="M13.8077 7.92308L8.73074 12.7692L6.19231 10.3462M3.63604 16.364C2.83954 15.5675 3.36783 13.8952 2.96241 12.9154C2.54215 11.8997 1 11.0822 1 9.99997C1 8.91779 2.54216 8.10031 2.96242 7.08459C3.36783 6.10475 2.83954 4.43254 3.63604 3.63604C4.43254 2.83954 6.10476 3.36783 7.0846 2.96241C8.10034 2.54215 8.91784 1 10 1C11.0822 1 11.8997 2.54216 12.9154 2.96242C13.8952 3.36783 15.5675 2.83954 16.364 3.63604C17.1605 4.43254 16.6322 6.10476 17.0376 7.0846C17.4579 8.10034 19 8.91784 19 10C19 11.0822 17.4578 11.8997 17.0376 12.9154C16.6322 13.8952 17.1605 15.5675 16.364 16.364C15.5675 17.1605 13.8952 16.6322 12.9154 17.0376C11.8997 17.4579 11.0822 19 9.99997 19C8.91779 19 8.10031 17.4578 7.08459 17.0376C6.10475 16.6322 4.43254 17.1605 3.63604 16.364Z" stroke="#FCB333" stroke-width="1.5" stroke-linecap="round" stroke-linejoin="round"/>
</svg>
