<svg width="66" height="66" viewBox="0 0 66 66" fill="none" xmlns="http://www.w3.org/2000/svg">
<path d="M26.1323 38.653C30.9713 38.653 34.8941 34.7017 34.8941 29.8275C34.8941 24.9533 30.9713 21.002 26.1323 21.002C21.2934 21.002 17.3706 24.9533 17.3706 29.8275C17.3706 34.7017 21.2934 38.653 26.1323 38.653ZM26.1323 38.653C23.753 38.6531 21.4081 39.2298 19.2965 40.3345C17.185 41.4392 15.3684 43.0394 14 45M26.1323 38.653C28.5117 38.6529 30.8555 39.2295 32.9671 40.334C35.0787 41.4385 36.8955 43.0386 38.264 44.9991M37.4909 21.3308C38.696 20.9888 39.9599 20.9108 41.1974 21.1023C42.435 21.2937 43.6174 21.75 44.6651 22.4405C45.7128 23.131 46.6014 24.0397 47.2711 25.1052C47.9408 26.1708 48.376 27.3685 48.5475 28.6178C48.7189 29.867 48.6226 31.1388 48.265 32.3474C47.9075 33.556 47.2969 34.6734 46.4745 35.6243C45.6521 36.5752 44.6369 37.3376 43.4974 37.86C42.3578 38.3825 41.1203 38.6529 39.8683 38.653C42.2479 38.6513 44.5928 39.2271 46.7046 40.3318C48.8163 41.4364 50.6327 43.0374 52 44.9991M15 65H51C58.732 65 65 58.732 65 51V15C65 7.26801 58.732 1 51 1H15C7.26801 1 1 7.26801 1 15V51C1 58.732 7.26801 65 15 65Z" stroke="#FCB333" stroke-width="2" stroke-linecap="round" stroke-linejoin="round"/>
</svg>
