<svg width="22" height="18" viewBox="0 0 22 18" fill="none" xmlns="http://www.w3.org/2000/svg">
<path d="M14.6364 1H1V12.5556H14.6364V1Z" fill="#FCB333" fill-opacity="0.15"/>
<path d="M14.6364 5.44444H18.2727L21 8.11111V12.5556H14.6364V5.44444Z" fill="#FCB333" fill-opacity="0.15"/>
<path d="M5.09091 17C6.3461 17 7.36364 16.0051 7.36364 14.7778C7.36364 13.5505 6.3461 12.5556 5.09091 12.5556C3.83572 12.5556 2.81818 13.5505 2.81818 14.7778C2.81818 16.0051 3.83572 17 5.09091 17Z" fill="#FCB333" fill-opacity="0.15"/>
<path d="M16.9091 17C18.1643 17 19.1818 16.0051 19.1818 14.7778C19.1818 13.5505 18.1643 12.5556 16.9091 12.5556C15.6539 12.5556 14.6364 13.5505 14.6364 14.7778C14.6364 16.0051 15.6539 17 16.9091 17Z" fill="#FCB333" fill-opacity="0.15"/>
<path d="M14.6364 12.5556V1H1V12.5556H14.6364ZM14.6364 12.5556H21V8.11111L18.2727 5.44444H14.6364V12.5556ZM7.36364 14.7778C7.36364 16.0051 6.3461 17 5.09091 17C3.83572 17 2.81818 16.0051 2.81818 14.7778C2.81818 13.5505 3.83572 12.5556 5.09091 12.5556C6.3461 12.5556 7.36364 13.5505 7.36364 14.7778ZM19.1818 14.7778C19.1818 16.0051 18.1643 17 16.9091 17C15.6539 17 14.6364 16.0051 14.6364 14.7778C14.6364 13.5505 15.6539 12.5556 16.9091 12.5556C18.1643 12.5556 19.1818 13.5505 19.1818 14.7778Z" stroke="#FCB333" stroke-width="1.5" stroke-linecap="round" stroke-linejoin="round"/>
</svg>
