<svg width="66" height="66" viewBox="0 0 66 66" fill="none" xmlns="http://www.w3.org/2000/svg">
<path d="M29.8 26.6L39.4 33L29.8 39.4V26.6Z" stroke="#FCB333" stroke-width="2" stroke-linecap="round" stroke-linejoin="round"/>
<path fill-rule="evenodd" clip-rule="evenodd" d="M15 1C7.26801 1 1 7.26801 1 15V51C1 58.732 7.26801 65 15 65H51C58.732 65 65 58.732 65 51V15C65 7.26801 58.732 1 51 1H15ZM33 49C41.8366 49 49 41.8366 49 33C49 24.1634 41.8366 17 33 17C24.1634 17 17 24.1634 17 33C17 41.8366 24.1634 49 33 49ZM29.8 26.6L39.4 33L29.8 39.4V26.6Z" stroke="#FCB333" stroke-width="2" stroke-linecap="round" stroke-linejoin="round"/>
</svg>
