<svg width="20" height="18" viewBox="0 0 20 18" fill="none" xmlns="http://www.w3.org/2000/svg">
<path d="M1 1.88702V7.22175M1 7.22175H5.90909M1 7.22175L4.79636 3.34518C5.6757 2.38912 6.76358 1.69071 7.95848 1.31511C9.15338 0.939518 10.4164 0.898983 11.6296 1.19729C12.8428 1.4956 13.9667 2.12302 14.8964 3.02102C15.8262 3.91902 16.5314 5.05833 16.9464 6.33263M19 16.113V10.7782M19 10.7782H14.0909M19 10.7782L15.2036 14.6548C14.3243 15.6109 13.2364 16.3093 12.0415 16.6849C10.8466 17.0605 9.58363 17.101 8.37042 16.8027C7.1572 16.5044 6.03329 15.877 5.10356 14.979C4.17384 14.081 3.46859 12.9417 3.05364 11.6674" stroke="#FCB333" stroke-width="1.5" stroke-linecap="round" stroke-linejoin="round"/>
</svg>
