<svg width="190" height="36" viewBox="0 0 190 36" fill="none" xmlns="http://www.w3.org/2000/svg">
<g clip-path="url(#clip0)">
<path d="M113.24 7.04917C114.983 8.49923 115.853 10.5116 115.85 13.0862C115.9 14.7316 115.432 16.3538 114.505 17.746C113.565 19.0668 112.206 20.0714 110.626 20.6157L116.072 29.8796C116.142 30.0019 116.182 30.1376 116.189 30.2765C116.187 30.4948 116.095 30.7036 115.932 30.858C115.769 31.0124 115.548 31.1 115.318 31.1021H111.966C111.609 31.1119 111.257 31.021 110.954 30.8408C110.651 30.6606 110.411 30.3993 110.266 30.09L105.079 21.3579H99.8218V30.09C99.8185 30.3574 99.7049 30.6131 99.5053 30.8022C99.3057 30.9914 99.0358 31.099 98.7535 31.1021H95.5487C95.2664 31.099 94.9966 30.9914 94.797 30.8022C94.5973 30.6131 94.4837 30.3574 94.4805 30.09V5.87829C94.4837 5.61081 94.5973 5.35516 94.797 5.16601C94.9966 4.97687 95.2664 4.86924 95.5487 4.86615H105.762C109.005 4.87144 111.497 5.59912 113.24 7.04917ZM105.561 16.6862C107.17 16.6862 108.397 16.4216 109.243 15.8924C110.09 15.3632 110.509 14.437 110.5 13.114C110.5 11.791 110.081 10.8728 109.243 10.3594C108.406 9.8461 107.173 9.58942 105.544 9.58942H99.805V16.7339L105.561 16.6862Z" fill="black"/>
<path d="M68.0673 12.1297C67.8529 12.3189 67.5683 12.4202 67.2755 12.4115H64.5064C64.1606 12.4294 63.8168 12.3508 63.5177 12.1852C63.255 12.0093 63.0385 11.7784 62.8851 11.5105C62.4132 10.791 61.7425 10.2076 60.9455 9.8236C59.8684 9.35188 58.6873 9.13269 57.5019 9.18456C56.2442 9.14527 54.9989 9.43064 53.8992 10.0101C53.4629 10.2142 53.0949 10.5288 52.8361 10.9191C52.5772 11.3094 52.4377 11.76 52.4329 12.2209C52.4122 12.5411 52.463 12.8618 52.5821 13.1621C52.7013 13.4624 52.886 13.7354 53.1242 13.9634C53.7511 14.4583 54.489 14.8113 55.2816 14.9954C56.2563 15.26 57.8524 15.6225 60.07 16.0829C63.2622 16.7338 65.5705 17.6467 66.9948 18.8216C68.4192 19.9965 69.1313 21.6093 69.1313 23.66C69.1481 25.1118 68.6609 26.5287 67.7447 27.6926C66.7154 28.9485 65.3395 29.9101 63.7691 30.471C60.0271 31.781 55.9213 31.8203 52.1522 30.5821C50.5654 30.0625 49.1381 29.1805 47.9965 28.0141C46.9742 26.9746 46.3718 25.6267 46.2956 24.2077C46.2772 24.0739 46.2926 23.9379 46.3407 23.8109C46.3888 23.6839 46.4681 23.5696 46.5721 23.4774C46.7867 23.2885 47.0712 23.1873 47.3639 23.1956H50.133C50.4853 23.1796 50.8352 23.258 51.1426 23.4218C51.4081 23.5892 51.6197 23.8227 51.7543 24.0966C52.1946 24.9218 52.8749 25.6104 53.7148 26.0811C54.5722 26.568 55.8974 26.8115 57.6905 26.8115C59.1855 26.8557 60.6722 26.5846 62.0431 26.0176C63.2049 25.4884 63.7858 24.6946 63.7858 23.6362C63.7963 23.3627 63.741 23.0905 63.6242 22.8402C63.5073 22.5899 63.332 22.3681 63.1114 22.1914C62.5475 21.7843 61.9039 21.4874 61.2178 21.3182C60.3995 21.08 59.1595 20.7744 57.4978 20.4013C56.8386 20.277 55.9812 20.0891 54.9255 19.8377C52.155 19.1868 50.1568 18.299 48.9307 17.1744C47.7046 16.0498 47.0916 14.4 47.0916 12.2249C47.078 10.7962 47.5575 9.40239 48.4573 8.25579C49.4245 7.03964 50.7156 6.08898 52.1983 5.50121C53.8731 4.82163 55.6802 4.48355 57.5019 4.50893C59.4812 4.46317 61.4471 4.82756 63.2622 5.57663C64.712 6.16299 65.9838 7.08407 66.9613 8.25579C67.7325 9.15879 68.2138 10.2526 68.3479 11.4073C68.3642 11.5401 68.3472 11.6747 68.2985 11.8002C68.2497 11.9256 68.1705 12.0385 68.0673 12.1297Z" fill="black"/>
<path d="M91.3844 5.17573C91.4862 5.2679 91.5669 5.37885 91.6217 5.50172C91.6764 5.6246 91.704 5.75681 91.7028 5.89018V8.55346C91.6995 8.82094 91.5859 9.07659 91.3863 9.26573C91.1867 9.45488 90.9168 9.56251 90.6345 9.5656H83.5128V30.1138C83.5095 30.3812 83.3959 30.6369 83.1963 30.826C82.9966 31.0152 82.7268 31.1228 82.4445 31.1259H79.2397C78.9574 31.1228 78.6876 31.0152 78.488 30.826C78.2883 30.6369 78.1747 30.3812 78.1715 30.1138V9.56163H71.0497C70.7674 9.55853 70.4976 9.4509 70.2979 9.26176C70.0983 9.07262 69.9847 8.81696 69.9814 8.54949V5.88621C69.9847 5.61873 70.0983 5.36309 70.2979 5.17395C70.4976 4.9848 70.7674 4.87718 71.0497 4.87408H90.6429C90.7816 4.87452 90.9187 4.90146 91.0461 4.95329C91.1735 5.00512 91.2886 5.08077 91.3844 5.17573Z" fill="black"/>
<path d="M140.596 5.17576C140.698 5.26793 140.778 5.37887 140.833 5.50175C140.888 5.62463 140.915 5.75683 140.914 5.89021C140.916 6.00702 140.889 6.12258 140.835 6.22759L131.472 21.862V30.1098C131.468 30.3773 131.355 30.633 131.155 30.8221C130.955 31.0112 130.686 31.1189 130.403 31.122H127.236C126.954 31.1189 126.684 31.0112 126.484 30.8221C126.285 30.633 126.171 30.3773 126.168 30.1098V21.862L116.767 6.23552C116.713 6.13062 116.686 6.01499 116.688 5.89814C116.691 5.63067 116.804 5.37503 117.004 5.18588C117.204 4.99674 117.474 4.88911 117.756 4.88602H120.726C121.117 4.86805 121.503 4.98039 121.815 5.20355C122.05 5.36962 122.246 5.58056 122.389 5.82273L128.803 16.4362L135.213 5.82273C135.356 5.58056 135.552 5.36962 135.786 5.20355C136.099 4.98039 136.485 4.86805 136.876 4.88602H139.85C139.989 4.88437 140.126 4.90918 140.254 4.95896C140.382 5.00875 140.498 5.08247 140.596 5.17576Z" fill="black"/>
<path d="M166.566 18C166.566 19.2251 166.539 20.1513 166.486 20.7784C166.274 24.0542 165.206 26.5984 163.281 28.411C161.357 30.2236 158.547 31.1299 154.852 31.1299H144.878C144.596 31.1268 144.326 31.0191 144.126 30.83C143.926 30.6409 143.813 30.3852 143.81 30.1177V5.90606C143.813 5.63858 143.926 5.38293 144.126 5.19379C144.326 5.00464 144.596 4.89701 144.878 4.89392H154.656C158.429 4.89392 161.291 5.80021 163.244 7.61278C165.196 9.42534 166.278 11.9696 166.49 15.2454C166.541 15.854 166.566 16.7722 166.566 18ZM149.151 9.56162V26.4383H154.651C156.735 26.4383 158.311 25.9263 159.381 24.9023C160.491 23.7841 161.118 22.313 161.141 20.7784C161.194 20.1539 161.22 19.2278 161.22 18C161.22 16.7722 161.194 15.8461 161.141 15.2216C161.116 13.6799 160.471 12.2052 159.339 11.0977C158.244 10.0736 156.615 9.56162 154.45 9.56162H149.151Z" fill="black"/>
<path d="M175.833 26.4384H188.932C189.215 26.4415 189.485 26.5491 189.684 26.7382C189.884 26.9274 189.997 27.183 190.001 27.4505V30.1138C189.997 30.3812 189.884 30.6369 189.684 30.826C189.485 31.0152 189.215 31.1228 188.932 31.1259H171.559C171.277 31.1228 171.007 31.0152 170.808 30.826C170.608 30.6369 170.494 30.3812 170.491 30.1138V5.90209C170.494 5.63462 170.608 5.37896 170.808 5.18982C171.007 5.00067 171.277 4.89305 171.559 4.88995H188.618C188.9 4.89305 189.17 5.00067 189.37 5.18982C189.57 5.37896 189.683 5.63462 189.686 5.90209V8.56537C189.683 8.83284 189.57 9.0885 189.37 9.27764C189.17 9.46679 188.9 9.57441 188.618 9.57751H175.833V15.5312H187.747C188.029 15.5343 188.299 15.6419 188.499 15.8311C188.698 16.0202 188.812 16.2758 188.815 16.5433V19.2066C188.812 19.4741 188.698 19.7297 188.499 19.9189C188.299 20.108 188.029 20.2156 187.747 20.2187H175.833V26.4384Z" fill="black"/>
<path d="M4.93457 31.1894C4.93554 31.0449 4.97431 30.903 5.04743 30.7762C5.12054 30.6494 5.2257 30.5418 5.3535 30.463L22.2823 19.7781C22.4332 19.6834 22.6103 19.6329 22.7913 19.6329C22.9724 19.6329 23.1494 19.6834 23.3003 19.7781L26.4171 21.731C26.5449 21.8098 26.6501 21.9174 26.7232 22.0441C26.7963 22.1709 26.8351 22.3129 26.8361 22.4573C26.8351 22.6018 26.7963 22.7437 26.7232 22.8705C26.6501 22.9973 26.5449 23.1049 26.4171 23.1837L6.37149 35.8491C6.23271 35.9368 6.07143 35.9871 5.90485 35.9947C5.73827 36.0023 5.57262 35.967 5.42558 35.8924C5.27853 35.8179 5.15559 35.7069 5.06986 35.5714C4.98413 35.4359 4.93882 35.2808 4.93876 35.1228L4.93457 31.1894Z" fill="#FCB333"/>
<path d="M6.37109 0.146849L33.4212 17.3054C33.549 17.3842 33.6541 17.4918 33.7272 17.6185C33.8004 17.7453 33.8391 17.8873 33.8401 18.0317C33.8388 18.1761 33.7998 18.318 33.7267 18.4447C33.6537 18.5714 33.5487 18.679 33.4212 18.7581L30.3211 20.7188C30.1693 20.8153 29.9907 20.8667 29.8079 20.8667C29.6252 20.8667 29.4466 20.8153 29.2948 20.7188L5.34471 5.54089C5.21692 5.4621 5.11175 5.35451 5.03864 5.22774C4.96553 5.10098 4.92675 4.959 4.92578 4.81455V0.8732C4.92533 0.714557 4.9705 0.558792 5.05644 0.42264C5.14239 0.286487 5.26586 0.175091 5.41359 0.100414C5.56132 0.0257373 5.72773 -0.0093995 5.89495 -0.00121833C6.06217 0.00696284 6.22388 0.058152 6.36271 0.146849H6.37109Z" fill="#FCB333"/>
<path d="M0.489863 30.1932C0.342915 30.1185 0.220112 30.0074 0.134533 29.8718C0.0489545 29.7362 0.00380482 29.5812 0.00390642 29.4232V25.4858C0.00487236 25.3413 0.0436498 25.1994 0.116763 25.0726C0.189876 24.9458 0.29504 24.8382 0.422833 24.7594L11.0761 18.0119L0.422833 11.2644C0.29504 11.1856 0.189876 11.078 0.116763 10.9512C0.0436498 10.8245 0.00487236 10.6825 0.00390642 10.538V6.63241C0.00396233 6.4744 0.0492748 6.31936 0.135006 6.18383C0.220738 6.04829 0.343678 5.93734 0.490726 5.86279C0.637773 5.78824 0.803415 5.75289 0.969996 5.76051C1.13658 5.76813 1.29786 5.81844 1.43664 5.90607L19.4714 17.2975C19.5903 17.3822 19.6867 17.4919 19.7531 17.6179C19.8195 17.744 19.8541 17.8829 19.8541 18.0238C19.8541 18.1647 19.8195 18.3037 19.7531 18.4297C19.6867 18.5558 19.5903 18.6655 19.4714 18.7502L1.43664 30.1416C1.29858 30.2307 1.13756 30.2825 0.970795 30.2916C0.804033 30.3007 0.637796 30.2667 0.489863 30.1932Z" fill="#FCB333"/>
</g>
<defs>
<clipPath id="clip0">
<rect width="190" height="36" fill="white"/>
</clipPath>
</defs>
</svg>
